<?xml version="1.0" encoding="utf-8"?>
<!-- Generator: Adobe Illustrator 26.5.0, SVG Export Plug-In . SVG Version: 6.00 Build 0)  -->
<svg version="1.1" id="Lushful_Aesthetic" xmlns="http://www.w3.org/2000/svg" xmlns:xlink="http://www.w3.org/1999/xlink" x="0px"
	 y="0px" viewBox="0 0 597.3 185.7" style="enable-background:new 0 0 597.3 185.7;" xml:space="preserve" role="navigation" aria-label="Logo link to homepage">
<style type="text/css">
	.st0{display:none;}
	.st1{fill:#FFFFFF;}
</style>
<rect x="-1552.3" y="-552" class="st0" width="950" height="950"/>
<g>
	<g>
		<g>
			<path class="st1" d="M-1109.8-122.4c-11.2-13.4-7.6-35.3,2.4-52.3c-9.7-6-62-6-62-6l4.3,46c0.9,10.1,5.1,19.7,11.3,27.8l1.6-1.1
				c8.4-5.6,18.9-8.1,29.2-8.1c-11.3-13.5-20.5-28.7-27.3-45.1C-1142-147.5-1122.8-130.9-1109.8-122.4z"/>
		</g>
		<g>
			<path class="st1" d="M-1044.8-122.4c11.2-13.4,7.6-35.3-2.4-52.3c9.7-6,62-6,62-6l-4.3,46c-0.9,10.1-5.1,19.7-11.3,27.8l-1.6-1.1
				c-8.4-5.6-18.9-8.1-29.2-8.1c11.3-13.5,20.5-28.7,27.3-45.1C-1012.6-147.5-1031.8-130.9-1044.8-122.4z"/>
		</g>
		<g>
			<path class="st1" d="M-1153.2-86.3c25.3,8.8,67.1,1.7,58.8-11.7c-0.5-0.8-1.2-1.7-2.1-2.6l0,0c-1-1-2.3-2-3.8-3
				c-1.7-1.1-3.6-2.1-5.5-3l0,0c-13.5-5.8-32-4.8-43.8,3l-24.7,16.4c23.7,15.7,42.1,26.3,64.6,21.4c0,0,0,0,0.1,0
				c1.1-0.2,2.1-0.5,3.2-0.8c4.8-1.6,13.3-6,15-17.9C-1112.5-72.9-1130.1-73.5-1153.2-86.3z"/>
		</g>
		<g>
			<path class="st1" d="M-1063.2-84.4c1.7,11.8,10.2,16.3,15,17.9c1.1,0.3,2.1,0.6,3.2,0.8c0.1,0,0.1,0,0.1,0
				c22.6,4.9,41-5.7,64.6-21.4l-24.7-16.4c-11.8-7.9-30.3-8.9-43.8-3l0,0c-2,0.9-3.8,1.9-5.5,3c-1.5,1-2.8,2-3.8,3l0,0
				c-0.9,0.9-1.6,1.7-2.1,2.6c-8.2,13.4,33.6,20.5,58.8,11.7C-1024.5-73.5-1042.1-72.9-1063.2-84.4z"/>
		</g>
	</g>
	<g>
		<path class="st1" d="M-1069.4-115l-0.8,0.2v-20.9c0-4.2-1.7-8.2-4.6-11.1c-0.1-0.1-0.1-0.2-0.1-0.3v-4.9l1.6-0.5v-0.8h-7.8v0.8
			l1.6,0.5v4.9c0,0.1-0.1,0.3-0.1,0.3c-1.5,1.5-2.6,3.2-3.4,5.1c-0.8,1.9-1.2,3.9-1.2,6v20.9l0,0c-0.3-0.1-0.6-0.1-0.8-0.2
			c-17.6-4.7-27.4-24.9-19.4-42.4l26.7-58.3v49h-0.8c-0.3,0-0.5,0.3-0.5,0.6l-0.4,11.4h4.6l-0.4-11.4c0-0.4-0.2-0.6-0.5-0.6h-0.8
			v-48.9l26.7,58.3C-1042-139.9-1051.8-119.7-1069.4-115z"/>
	</g>
	<g>
		<g>
			<path class="st1" d="M-1071.5-65.8h-3.3V-89h-2.5h-2.5v23.2h-3.3c-0.5,0-1,0.4-1,1c0,0.5,0.4,1,1,1c1.9,0.4,3.9,0.6,5.8,0.6
				c1.9,0,3.9-0.2,5.8-0.6c0.5,0,1-0.5,1-1S-1071-65.8-1071.5-65.8z"/>
		</g>
		<g>
			<path class="st1" d="M-1067.3-91c0,0.1,0,0.2-0.1,0.3l0,0c0,0.1-0.1,0.2-0.2,0.3c-0.1,0.1-0.3,0.2-0.6,0.2h-18.4
				c-0.2,0-0.4-0.1-0.6-0.2c-0.1-0.1-0.1-0.2-0.2-0.3l0,0c0-0.1-0.1-0.2-0.1-0.3s0-0.2,0.1-0.3l0,0c0-0.1,0.1-0.2,0.2-0.3
				c0.1-0.1,0.3-0.2,0.6-0.2h2.2v-22.9c1.8,0.4,3.6,0.7,5.6,0.8c0.5,0,1,0,1.5,0s1,0,1.5,0c1.9-0.1,3.8-0.3,5.5-0.8l0,0v22.9h2.2
				c0.2,0,0.4,0.1,0.6,0.2c0.1,0.1,0.1,0.2,0.2,0.3l0,0C-1067.3-91.2-1067.3-91.1-1067.3-91z"/>
		</g>
	</g>
	<g>
		<path class="st1" d="M-1067.3-91c0,0.1,0,0.2-0.1,0.3l0,0c0,0.1-0.1,0.2-0.2,0.3c-0.1,0.1-0.3,0.2-0.6,0.2h-18.4
			c-0.2,0-0.4-0.1-0.6-0.2c-0.1-0.1-0.1-0.2-0.2-0.3l0,0c0-0.1-0.1-0.2-0.1-0.3s0-0.2,0.1-0.3l0,0c0-0.1,0.1-0.2,0.2-0.3
			c0.1-0.1,0.3-0.2,0.6-0.2h2.2V-115l0,0v0.2c1.8,0.4,3.6,0.7,5.6,0.8c0.5,0,1,0,1.5,0s1,0,1.5,0c1.9-0.1,3.8-0.3,5.5-0.8v22.9h2.2
			c0.2,0,0.4,0.1,0.6,0.2c0.1,0.1,0.1,0.2,0.2,0.3l0,0C-1067.3-91.2-1067.3-91.1-1067.3-91z"/>
	</g>
</g>
<g>
	<path class="st1" d="M-1172.2,29.8c3.7,0,5.5,1.5,5.5,4.6c0,1.1-0.4,2.1-1.2,2.9c-0.8,0.8-1.9,1.3-3.2,1.5c1.5,0,2.8,0.5,3.9,1.4
		c1.1,0.9,1.6,2.1,1.6,3.6c0,3.5-2.4,5.2-7.1,5.2h-8.4v-1l1.6,0.1c0.4,0,0.6-0.2,0.6-0.7v-16c0-0.4-0.2-0.6-0.5-0.6l-1.6,0.1v-1
		L-1172.2,29.8L-1172.2,29.8z M-1173.7,30.7h-1.9c-0.2,0-0.4,0.1-0.4,0.4v7.4h2.4c1.3,0,2.2-0.3,2.8-1s0.9-1.7,0.9-3
		c0-1.2-0.3-2.1-1-2.7C-1171.6,31.2-1172.4,30.7-1173.7,30.7z M-1172.6,39.4h-3.3v8.3c0,0.3,0.1,0.4,0.4,0.4h2.2
		c1.3,0,2.4-0.4,3.3-1.1c0.8-0.8,1.2-1.8,1.2-3.2c0-1.5-0.3-2.6-1-3.3C-1170.4,39.7-1171.4,39.4-1172.6,39.4z"/>
	<path class="st1" d="M-1157,49.2l-5.7-12.5c-0.1-0.3-0.3-0.4-0.5-0.4l-1.6,0.1v-0.8h7v0.8l-1.4-0.1c-0.1,0-0.3,0.1-0.4,0.2
		c-0.1,0.1-0.1,0.2,0,0.4l4.1,9L-1157,49.2z M-1152.1,36.8c0.1-0.3,0-0.5-0.3-0.5l-1.5,0.1v-0.8h5v0.8l-1.3-0.1h-0.1
		c-0.3,0-0.6,0.2-0.8,0.6l-6.8,16.3c-0.5,1.3-1.1,2.1-1.6,2.7s-1.3,0.8-2.1,0.8c-0.6,0-1-0.1-1.4-0.4c-0.4-0.3-0.6-0.7-0.7-1.2
		c0-0.6,0.1-1,0.4-1.2c0.3-0.2,0.5-0.4,0.8-0.4c0.4,0,0.7,0.1,0.9,0.3c0.2,0.2,0.3,0.4,0.5,0.7c0.1,0.2,0.3,0.3,0.6,0.3
		c0.6,0,1.1-0.5,1.5-1.5L-1152.1,36.8z"/>
	<path class="st1" d="M-1140.2,48.9V48l1.2,0.1c0.4,0,0.6-0.2,0.6-0.7v-16c0-0.5-0.2-0.7-0.6-0.7l-1.2,0.1v-1h6.7v1l-1.2-0.1
		c-0.4,0-0.6,0.2-0.6,0.7v16c0,0.5,0.2,0.7,0.6,0.7l1.2-0.1v0.9H-1140.2z"/>
	<path class="st1" d="M-1126.2,35.5c-0.1,0.3-0.2,0.7-0.2,1.1v10.9c0,0.4,0.1,0.6,0.4,0.6l1.5-0.1v0.8h-6.2V48l1.2,0.1
		c0.3-0.1,0.4-0.3,0.4-0.6V36.8c0-0.4-0.1-0.6-0.4-0.6l-1.2,0.1v-0.8H-1126.2z M-1121.6,35.2c1.5,0,2.6,0.4,3.3,1.1
		c0.7,0.7,1,1.9,1,3.5v7.8c0,0.4,0.1,0.6,0.4,0.6l1.2-0.1v0.8h-6.2v-0.8l1.5,0.1c0.3-0.1,0.4-0.3,0.4-0.6v-7.3
		c0-1.4-0.1-2.4-0.3-3.1c-0.2-0.7-0.8-1-1.8-1c-1.3,0-2.4,0.6-3.1,1.8c-0.8,1.2-1.1,2.8-1.1,4.8l-0.1-4.1c0.4-1.1,1-1.9,1.9-2.6
		C-1123.8,35.5-1122.8,35.2-1121.6,35.2z"/>
	<path class="st1" d="M-1109.6,35.5v13.6c0,2.6-0.4,4.6-1.2,5.8c-0.8,1.2-1.9,1.8-3.4,1.8c-1,0-1.8-0.2-2.4-0.7
		c-0.6-0.4-0.8-0.9-0.8-1.5c0-0.9,0.5-1.4,1.5-1.4c0.2,0,0.4,0.1,0.7,0.2c0.3,0.1,0.4,0.4,0.4,0.7c0,0.2,0,0.3-0.1,0.5
		c-0.1,0.2-0.1,0.3-0.1,0.5c0,0.5,0.3,0.8,1,0.8c0.6,0,1-0.2,1.3-0.7c0.3-0.4,0.4-1.1,0.4-2c0-0.1,0-0.4,0-0.9s0-1,0-1.4V36.9
		c0-0.4-0.1-0.6-0.4-0.6l-1.3,0.1v-0.8L-1109.6,35.5L-1109.6,35.5z M-1111.1,28.4c0.5,0,0.9,0.1,1.2,0.4c0.3,0.3,0.5,0.6,0.5,1.1
		s-0.2,0.9-0.5,1.1c-0.3,0.3-0.8,0.4-1.2,0.4c-0.5,0-0.9-0.1-1.2-0.4c-0.3-0.3-0.5-0.6-0.5-1.1s0.2-0.8,0.5-1.1
		C-1112.1,28.5-1111.6,28.4-1111.1,28.4z"/>
	<path class="st1" d="M-1099.5,35.2c1.7,0,3,0.5,4.1,1.6c1,1.1,1.6,2.5,1.6,4.4v0.9h-9.2c0,4,1.3,6,4,6c1.2,0,2.1-0.3,2.8-0.9
		c0.7-0.6,1.2-1.2,1.5-1.9l0.7,0.5c-0.4,1-1.2,1.9-2.2,2.4c-1,0.6-2.1,0.9-3.3,0.9c-2.3,0-3.9-0.6-4.9-1.8s-1.6-2.9-1.6-5.2
		s0.5-4.1,1.6-5.3S-1101.6,35.2-1099.5,35.2z M-1099.5,36.1c-1.3,0-2.2,0.5-2.7,1.6s-0.8,2.3-0.8,3.7h5.8c0.4,0,0.6-0.4,0.6-1.1
		c0-1.4-0.2-2.5-0.7-3.2C-1097.6,36.4-1098.4,36.1-1099.5,36.1z"/>
	<path class="st1" d="M-1085.3,35.2c1.3,0,2.5,0.3,3.5,0.9c1,0.6,1.5,1.4,1.5,2.3c0,0.4-0.1,0.7-0.3,1.1c-0.2,0.3-0.6,0.5-1.2,0.5
		c-0.3,0-0.6-0.1-0.8-0.2c-0.2-0.1-0.3-0.4-0.3-0.7s0-0.5,0.1-0.7c0.1-0.2,0.1-0.4,0.1-0.7c0-0.6-0.3-1-0.8-1.3s-1.1-0.4-1.7-0.4
		c-1,0-1.8,0.4-2.5,1.2c-0.7,0.8-0.9,2.4-0.9,4.7c0,2.2,0.3,3.8,0.9,4.8c0.6,1.1,1.5,1.6,2.7,1.6c1,0,1.9-0.3,2.8-0.9
		s1.4-1.4,1.7-2.6l0.8,0.6c-0.4,1.1-1,2-1.9,2.7s-2.1,1-3.5,1c-2,0-3.6-0.6-4.7-1.9c-1.1-1.3-1.7-2.9-1.7-5.1c0-2.2,0.6-3.9,1.7-5.2
		C-1088.6,35.8-1087.1,35.2-1085.3,35.2z"/>
	<path class="st1" d="M-1073.6,32.2v3.3h3.5v0.8h-3.5v9.8c0,0.8,0.1,1.4,0.3,1.6c0.2,0.3,0.5,0.4,1,0.4c0.3,0,0.6-0.1,1-0.4
		c0.4-0.2,0.6-0.5,0.7-0.9l0.7,0.4c-0.2,0.6-0.6,1-1.1,1.3s-1.3,0.5-2.3,0.5c-1.1,0-1.9-0.3-2.3-0.8c-0.5-0.5-0.7-1.3-0.7-2.5v-9.6
		h-2v-0.8c1.2,0,2-0.2,2.5-0.6c0.5-0.4,0.9-1.3,1.2-2.7h1V32.2z"/>
	<path class="st1" d="M-1067.9,42.2c0-2.1,0.5-3.8,1.6-5.1c1.1-1.3,2.7-1.9,4.8-1.9s3.8,0.6,4.8,1.9s1.6,3,1.6,5.1
		c0,2.2-0.5,3.9-1.6,5.2c-1.1,1.3-2.7,1.9-4.8,1.9s-3.8-0.6-4.8-1.9C-1067.4,46.1-1067.9,44.4-1067.9,42.2z M-1065,42.3
		c0,2.1,0.3,3.7,0.8,4.7s1.4,1.5,2.7,1.5c1.3,0,2.2-0.5,2.7-1.5s0.8-2.5,0.8-4.7s-0.3-3.7-0.8-4.7s-1.4-1.5-2.7-1.5
		s-2.2,0.5-2.7,1.5S-1065,40.1-1065,42.3z"/>
	<path class="st1" d="M-1048.5,47.6c0,0.4,0.1,0.6,0.4,0.6l2-0.1v0.8h-6.6v-0.8l1,0.1c0.3,0,0.4-0.2,0.4-0.6V36.9
		c0-0.4-0.1-0.6-0.4-0.6l-1.2,0.1v-0.8h4.5c-0.1,0.3-0.2,0.8-0.2,1.5v10.5H-1048.5z M-1048.7,39c0.5-1.4,1.1-2.4,1.8-3
		c0.7-0.6,1.4-0.9,2.2-0.9c0.9,0,1.5,0.2,2,0.7c0.4,0.5,0.7,1.1,0.7,1.8c0,0.5-0.1,0.9-0.4,1.1c-0.3,0.2-0.6,0.4-1,0.4
		c-0.3,0-0.5-0.1-0.8-0.2c-0.3-0.1-0.4-0.4-0.4-0.8c0-0.3,0-0.5,0.1-0.7c0.1-0.2,0.1-0.4,0.1-0.7c0-0.4-0.2-0.7-0.7-0.7
		c-0.8,0-1.4,0.4-1.9,1.2s-0.9,1.7-1.1,2.7c-0.2,1-0.3,1.9-0.3,2.7L-1048.7,39z"/>
	<path class="st1" d="M-1040.3,39.5c0-3.2,0.8-5.6,2.5-7.4c1.7-1.7,4-2.6,7.1-2.6c1.1,0,2,0.1,2.7,0.3c0.7,0.2,1.3,0.5,1.9,0.7
		c0.6,0.2,1.3,0.4,2.1,0.4c0,0.4-0.1,0.8-0.1,1.2s0,0.8,0,1.2c0,1.1,0,1.7,0.1,1.8h-0.8c-0.3-1.3-1-2.4-2.1-3.4
		c-1.2-0.9-2.5-1.4-3.9-1.4c-1.9,0-3.4,0.8-4.5,2.5s-1.6,3.9-1.6,6.7c0,2.6,0.6,4.8,1.7,6.4c1.2,1.7,2.7,2.5,4.6,2.5
		c1.5,0,2.8-0.5,3.9-1.4c1.1-0.9,1.8-2.1,2.1-3.4h0.9c-0.1,0.6-0.1,1.2-0.2,1.7c0,0.5,0,0.8,0,1.1c0,0.6,0,1.1,0.1,1.5h-0.2
		c-0.8,0-1.8,0.2-3,0.7c-1.2,0.5-2.4,0.7-3.8,0.7c-2.9,0-5.2-0.9-6.9-2.6C-1039.4,44.9-1040.3,42.5-1040.3,39.5z"/>
	<path class="st1" d="M-1016.8,25.6v13.1v3.2v5.6c0,0.4,0.1,0.6,0.4,0.6l1.5-0.1v0.8h-6.2V48l1.2,0.1c0.3-0.1,0.4-0.3,0.4-0.6V27
		c0-0.4-0.1-0.7-0.4-0.7l-1.2,0.1v-0.8H-1016.8z M-1012,35.2c1.5,0,2.6,0.4,3.3,1.1c0.7,0.7,1,1.9,1,3.5v7.8c0,0.4,0.1,0.6,0.4,0.6
		l1.2-0.1v0.8h-6.2v-0.8l1.5,0.1c0.3-0.1,0.4-0.3,0.4-0.6v-7.3c0-1.4-0.1-2.4-0.3-3.1c-0.2-0.7-0.8-1-1.8-1c-1.3,0-2.4,0.6-3.1,1.8
		c-0.8,1.2-1.1,2.8-1.1,4.8l-0.1-4.1c0.4-1.1,1-1.9,1.9-2.6C-1014.2,35.5-1013.2,35.2-1012,35.2z"/>
	<path class="st1" d="M-1000,47.6c0,0.4,0.1,0.6,0.4,0.6l2-0.1v0.8h-6.6v-0.8l1,0.1c0.3,0,0.4-0.2,0.4-0.6V36.9
		c0-0.4-0.1-0.6-0.4-0.6l-1.2,0.1v-0.8h4.5c-0.1,0.3-0.2,0.8-0.2,1.5L-1000,47.6L-1000,47.6z M-1000.2,39c0.5-1.4,1.1-2.4,1.8-3
		s1.4-0.9,2.2-0.9c0.9,0,1.5,0.2,2,0.7c0.4,0.5,0.7,1.1,0.7,1.8c0,0.5-0.1,0.9-0.4,1.1s-0.6,0.4-1,0.4c-0.3,0-0.5-0.1-0.8-0.2
		c-0.3-0.1-0.4-0.4-0.4-0.8c0-0.3,0-0.5,0.1-0.7s0.1-0.4,0.1-0.7c0-0.4-0.2-0.7-0.7-0.7c-0.8,0-1.4,0.4-1.9,1.2s-0.9,1.7-1.1,2.7
		c-0.2,1-0.3,1.9-0.3,2.7L-1000.2,39z"/>
	<path class="st1" d="M-987.7,35.5v12.1c0,0.4,0.1,0.6,0.4,0.6l1.2-0.1v0.8h-5.9v-0.8l1.2,0.1c0.3,0,0.4-0.2,0.4-0.6V36.9
		c0-0.4-0.1-0.6-0.4-0.6l-1.2,0.1v-0.8L-987.7,35.5L-987.7,35.5z M-989.3,28.4c0.5,0,0.9,0.1,1.3,0.4s0.5,0.6,0.5,1.1
		s-0.2,0.9-0.5,1.1s-0.8,0.4-1.3,0.4s-0.9-0.1-1.2-0.4s-0.5-0.6-0.5-1.1s0.2-0.8,0.5-1.1S-989.8,28.4-989.3,28.4z"/>
	<path class="st1" d="M-983.7,48.6l0.2-4.2l0.8-0.1c0,1.2,0.5,2.2,1.4,2.9s2,1.1,3.2,1.1c1.8,0,2.7-0.8,2.7-2.4
		c0-0.6-0.2-1.1-0.5-1.5s-0.9-0.7-1.7-0.9l-3.1-0.9c-0.8-0.2-1.5-0.7-2-1.3s-0.8-1.4-0.8-2.3c0-1.2,0.4-2.1,1.3-2.8s2.1-1.1,3.6-1.1
		c0.9,0,1.6,0.1,2.2,0.4c0.6,0.2,1.1,0.4,1.7,0.4c0.3,0,0.6-0.1,0.9-0.3l-0.2,3.6h-0.7c0-0.8-0.3-1.6-1-2.2c-0.6-0.7-1.6-1-2.8-1
		c-0.8,0-1.5,0.2-1.9,0.7c-0.4,0.4-0.7,1-0.7,1.6c0,1,0.7,1.8,2,2.1l3.1,0.9c1.1,0.3,1.9,0.8,2.3,1.4c0.4,0.6,0.6,1.3,0.6,2.2
		c0,1.4-0.5,2.5-1.5,3.2s-2.3,1.1-3.8,1.1c-0.5,0-0.9,0-1.4-0.1s-1.2-0.3-2.2-0.6c-0.3-0.1-0.6-0.1-0.9-0.1
		C-983.2,48.4-983.5,48.5-983.7,48.6z"/>
</g>
<g>
	<path class="st1" d="M-1218.1,7.5c0,0.5-2.6,2-6,2c-4.9,0-10.5-2.9-14.5-4.2c0,0-1.1,2.9-4.9,2.9c-1.6,0-2.6-1-2.6-2.3
		c0-1.8,1.7-2.9,3.3-2.9c0.5,0,1,0.1,1,0.1l6.9-25.8c-0.1-4.2,0.4-5.4,2.1-5.4c1.5,0,3.1,0.6,2.8,1.8c-0.1,0.5-8.1,30-8.1,30
		c4.5,1,10.3,4.3,13.8,4.3c1.2,0,2.3-0.8,2.5-1c0.3-0.3,0.9-0.4,1.5-0.4C-1219.1,6.7-1218.1,7-1218.1,7.5z M-1243.8,6.7
		c0.8,0,1.7-2,1.7-2s-0.3-0.1-0.7-0.1c-0.8,0-1.6,0.6-1.6,1.3C-1244.4,6.3-1244.2,6.7-1243.8,6.7z"/>
	<path class="st1" d="M-1190.4-2L-1190.4-2c0.3,0,0.4,0.1,0.2,0.3c-2.4,3.3-9.1,10-11.9,10c-1.5,0-2.9-0.6-2.6-2
		c0.1-0.6,0.9-3.4,0.9-3.4s-4,5.4-7.2,5.4c-3.8,0-5.6-2-3.8-9.2c0.8-2.9,1.6-5.8,1.7-6.2c0.3-1.2,1-1.8,3-1.8c2.1,0,2.2,0.9,2.2,1.5
		c-0.3,1.7-2.2,4.2-2.2,4.2s-0.3,1.2-0.7,2.7c-1.1,4-0.6,7.2,0.3,7.2c1.9,0,5.8-4.7,7.9-8c1-3.9,1.7-6.2,1.8-6.7s1-0.8,1.9-0.8
		c1,0,2,0.3,2,0.8c-0.2,0.6-2.7,10-3.5,13.2c-0.1,0.3,0.1,0.5,0.3,0.5c1,0,7-6.3,8-7.4C-1192.1-1.7-1190.8-1.9-1190.4-2z"/>
	<path class="st1" d="M-1173.9-1.7c-2.4,3.3-7.4,10-13.8,10c-4.6,0-7.4-2.8-6.7-5.8c0.1-0.4,0.6-0.6,1-0.6c0.8,0,1.5,0.4,1.3,1
		c-0.6,2.1,1.7,3.9,3.8,3.9c1.5,0,3.8-1,3.8-2.9c0-2.4-3.6-4.5-4.7-7.1c0,0-0.5,0.9-1,1.6c0,0-1.3,0.3-1.7,0.3
		c-0.3,0.1-0.4-0.1-0.3-0.3c0.7-1,2-2.8,2.6-4.5c0.6-2,2.6-3,4.8-3c1.7,0,3,0.9,3.6,2.5c0.2,0.4,0,0.8-0.4,1
		c-0.1,0.1-0.3,0.1-0.4,0.1c-0.3,0-0.6-0.1-0.6-0.4c-0.3-0.8-0.9-1.5-1.7-1.5s-1.5,1.2-1.5,2.4c0,3.1,5.2,6,5.2,8.8
		c1.7-1.5,3-3.1,4.7-5.3c0,0,1.3-0.3,1.7-0.3C-1173.8-2-1173.7-1.9-1173.9-1.7z"/>
	<path class="st1" d="M-1161.8,5.2c-0.1,0.3,0.1,0.4,0.3,0.4c1,0,7.1-6.2,8-7.4c0,0,1.3-0.3,1.7-0.3c0.3-0.1,0.4,0.1,0.3,0.3
		c-2.4,3.3-9.2,10-11.9,10c-1.8,0-2.9-0.8-2.6-2c0.1-0.6,2.8-10.6,3.5-13.1c0.1-0.4-0.1-0.6-0.4-0.6c-2,0-9.5,10.2-10.6,11.9
		c0,0-0.5,1.9-0.7,2.6c-0.1,0.6-1.2,0.8-2.1,0.8s-2-0.3-1.8-0.9c0.3-1,10.2-38,10.4-39c1.1-4.1,3.1-4.8,5.2-4.8
		c1.7,0,2.9,1.5,2.9,4.9c0,8.9-7.4,22.1-11.7,28l-1.2,4.3c0,0,6.7-9.5,10.2-9.5s3.6,2.1,3.5,2.8C-1158.8-5.9-1161,2.4-1161.8,5.2z
		 M-1161-31.9c0-2-0.4-2.9-1-2.9s-1.2,1-1.7,2.8c-0.5,1.9-6.3,23.5-6.3,23.5S-1161-22.6-1161-31.9z"/>
	<path class="st1" d="M-1140.1-36.8c1.7,0,2.9,1.5,2.9,4.9c0,8.9-7.4,22.2-11.7,28l-1.2,4.3h1.8c3.2,0,6.6-0.6,8.1-2.1
		c0,0,1.3-0.3,1.7-0.3c0.1,0,0.1,0,0.1,0c0.2,0,0.3,0.1,0.1,0.3c-1.5,2.2-4.2,3.6-10.2,3.6h-2l-0.4,1.6c0,0,1.2,2,1.2,5.8
		c0,5.2-2.6,12.7-5.9,12.7c-2.7,0-3.8-1.3-2.8-5.3c0.5-1.9,3.9-14.5,3.9-14.5s-0.6-0.3-1.7-0.3c-0.4,0-0.8-0.3-0.8-0.8
		s0.3-0.8,0.8-0.8h2.2c0,0,8.6-32,8.7-32.4C-1144.2-36.1-1142.2-36.8-1140.1-36.8z M-1154.5,19.6c0.8,0,3.2-5.5,3.2-10.2
		c0-1.9-0.3-3.2-0.3-3.2s-2.8,10.3-2.9,10.8C-1154.7,18.1-1155.1,19.6-1154.5,19.6z M-1138.7-31.9c0-2-0.4-2.9-1-2.9
		c-0.6,0-1.2,1-1.7,2.8c-0.5,1.9-6.3,23.5-6.3,23.5S-1138.7-22.6-1138.7-31.9z"/>
	<path class="st1" d="M-1116.1-2L-1116.1-2c0.3,0,0.4,0.1,0.2,0.3c-2.4,3.3-9.1,10-11.9,10c-1.5,0-2.9-0.6-2.6-2
		c0.1-0.6,0.9-3.4,0.9-3.4s-4,5.4-7.2,5.4c-3.8,0-5.6-2-3.8-9.2c0.8-2.9,1.6-5.8,1.7-6.2c0.3-1.2,1-1.8,3-1.8c2.1,0,2.2,0.9,2.2,1.5
		c-0.3,1.7-2.2,4.2-2.2,4.2s-0.3,1.2-0.7,2.7c-1.1,4-0.6,7.2,0.3,7.2c1.9,0,5.8-4.7,7.9-8c1-3.9,1.7-6.2,1.8-6.7s1-0.8,1.9-0.8
		c1,0,2,0.3,2,0.8c-0.2,0.6-2.7,10-3.5,13.2c-0.1,0.3,0.1,0.5,0.3,0.5c1,0,7-6.3,8-7.4C-1117.8-1.7-1116.4-1.9-1116.1-2z"/>
	<path class="st1" d="M-1101.5-31.9c0,8.9-7.5,22.2-11.8,28c0,0-0.9,3.2-1.2,4.4c-1,4.3-0.2,6.1,0.3,6.1c2.5,0,7.9-6,9.6-8.3
		c0,0,1.3-0.3,1.7-0.3c0.3-0.1,0.4,0.1,0.3,0.3c-2.4,3.3-7.9,10-12.2,10c-4.1,0-4.9-2.8-3.3-9c1.8-6.8,8.2-30.6,8.4-31.3
		c1.1-4.1,3.1-4.8,5.2-4.8C-1102.8-36.8-1101.5-35.3-1101.5-31.9z M-1103-31.9c0-2-0.4-2.9-1-2.9s-1.2,1-1.7,2.8
		c-0.5,1.9-6.3,23.5-6.3,23.5S-1103-22.6-1103-31.9z"/>
	<path class="st1" d="M-1062.9,9.6c-1.7,0-3.1-0.7-3-2.4c0.1-0.4,1.3-13.8,1.3-13.8c-0.6-0.1-1-0.3-1-0.3s-10.7,1.3-16.6,9.2
		c-0.2,0.3-3.3,4.5-3.6,4.9c-0.2,0.3-0.6,0.6-1.9,0.6c-1.2,0-2.3-0.5-2-1c0.2-0.3,24.6-33.2,24.8-33.5c0.7-1,1.7-1.5,3.1-1.5
		c1.5,0,3.2,0.7,3.1,2.2c0,0.4-1.7,17.1-1.7,17.1c1.1,0,2.6,0.4,2.6,1.5c0,1-1.5,1.5-2.9,1.5c0,0-1.2,12.8-1.3,13.1
		c-0.1,0.4,0,0.8,0.4,0.9c0.4,0.1,0.7,0.3,0.7,0.6C-1060.9,9.1-1061.5,9.6-1062.9,9.6z M-1062.9-23.8l-13.6,18.4
		c6.1-2.8,12.1-3.1,12.1-3.1L-1062.9-23.8z"/>
	<path class="st1" d="M-1056.9,1.7c0-4.9,4.7-10.9,10.7-10.9c2,0,3.5,1.3,3.5,2.6c0,3.2-5.9,4.9-9.7,5.4c0,0-0.6,1.5-0.6,2.9
		c0,2.8,1.8,5,3.5,5c5.1,0,9.3-6.2,11-8.4c0,0,1.3-0.3,1.7-0.3c0.3-0.1,0.4,0.1,0.3,0.3c-2.4,3.3-7.2,9.9-12.9,9.9
		C-1053,8.3-1056.9,6.5-1056.9,1.7z M-1046.1-7.6c-1.5,0-3.9,1.9-5.5,4.7c3.3-0.7,6.5-1.7,6.5-3.8
		C-1045.2-7.3-1045.5-7.6-1046.1-7.6z"/>
	<path class="st1" d="M-1020.3-1.7c-2.4,3.3-7.4,10-13.8,10c-4.6,0-7.4-2.8-6.7-5.8c0.1-0.4,0.6-0.6,1-0.6c0.8,0,1.5,0.4,1.3,1
		c-0.6,2.1,1.7,3.9,3.8,3.9c1.5,0,3.8-1,3.8-2.9c0-2.4-3.6-4.5-4.7-7.1c0,0-0.5,0.9-1,1.6c0,0-1.3,0.3-1.7,0.3
		c-0.3,0.1-0.4-0.1-0.3-0.3c0.7-1,2-2.8,2.6-4.5c0.6-2,2.6-3,4.8-3c1.7,0,3,0.9,3.6,2.5c0.2,0.4,0,0.8-0.4,1
		c-0.1,0.1-0.3,0.1-0.4,0.1c-0.3,0-0.6-0.1-0.6-0.4c-0.3-0.8-0.9-1.5-1.7-1.5c-0.8,0-1.5,1.2-1.5,2.4c0,3.1,5.2,6,5.2,8.8
		c1.7-1.5,3-3.1,4.7-5.3c0,0,1.3-0.3,1.7-0.3C-1020.2-2-1020.1-1.9-1020.3-1.7z"/>
	<path class="st1" d="M-1010.2-7.2h-5.2c-0.8,1.2-1.6,2.4-2.2,3.3c0,0-0.9,3.3-1.2,4.4c-1,4.3-0.2,6.1,0.3,6.1c3.1,0,8.9-6,10.6-8.3
		c0,0,1.3-0.3,1.7-0.3c0.3-0.1,0.4,0.1,0.3,0.3c-2.4,3.3-8.6,10-13.1,10c-4.4,0-4.9-3.3-3.3-9c0.3-1.3,1.7-6.5,1.7-6.5h-0.9
		c-1.1,0-2-1-2-1.4c0-0.1,0.1-0.2,0.3-0.2h3.1c0,0,6.1-22.7,6.2-23.2c1.1-4.1,3.1-4.8,5.2-4.8c1.7,0,2.9,1.5,2.9,4.9
		c0,6.9-4.5,16.5-8.5,23.1h2.4c1.1,0,2,1,2,1.4C-1010-7.2-1010.1-7.2-1010.2-7.2z M-1010.1-32.1c-0.5,1.8-5.5,20.5-6.3,23.3h0.1
		c1.4-2.2,8.8-14.7,8.8-23.2c0-2-0.4-2.9-1-2.9S-1009.6-33.9-1010.1-32.1z"/>
	<path class="st1" d="M-993.9,5.2c-0.1,0.3,0.1,0.4,0.3,0.4c1,0,7.1-6.2,8-7.4c0,0,1.3-0.3,1.7-0.3c0.3-0.1,0.4,0.1,0.3,0.3
		c-2.4,3.3-9.2,10-11.9,10c-1.8,0-2.9-0.8-2.6-2c0.1-0.6,2.8-10.6,3.5-13.1c0.1-0.4-0.1-0.6-0.4-0.6c-2,0-9.5,10.2-10.6,11.9
		c0,0-0.5,1.9-0.7,2.6c-0.1,0.6-1.2,0.8-2.1,0.8s-2-0.3-1.8-0.9c0.3-1,10.2-38,10.4-39c1.1-4.1,3.1-4.8,5.2-4.8
		c1.7,0,2.9,1.5,2.9,4.9c0,8.9-7.4,22.1-11.7,28l-1.2,4.3c0,0,6.7-9.5,10.2-9.5s3.6,2.1,3.5,2.8C-990.9-5.9-993.1,2.4-993.9,5.2z
		 M-993.1-31.9c0-2-0.4-2.9-1-2.9s-1.2,1-1.7,2.8c-0.5,1.9-6.3,23.5-6.3,23.5S-993.1-22.6-993.1-31.9z"/>
	<path class="st1" d="M-987.2,1.7c0-4.9,4.7-10.9,10.7-10.9c2,0,3.5,1.3,3.5,2.6c0,3.2-5.9,4.9-9.7,5.4c0,0-0.6,1.5-0.6,2.9
		c0,2.8,1.8,5,3.5,5c5.1,0,9.3-6.2,11-8.4c0,0,1.3-0.3,1.7-0.3c0.3-0.1,0.4,0.1,0.3,0.3c-2.4,3.3-7.2,9.9-12.9,9.9
		C-983.4,8.3-987.2,6.5-987.2,1.7z M-976.5-7.6c-1.5,0-3.9,1.9-5.5,4.7c3.3-0.7,6.5-1.7,6.5-3.8C-975.5-7.3-975.9-7.6-976.5-7.6z"/>
	<path class="st1" d="M-956.9-7.2h-5.2c-0.8,1.2-1.6,2.4-2.2,3.3c0,0-0.9,3.3-1.2,4.4c-1,4.3-0.2,6.1,0.3,6.1c3.1,0,8.9-6,10.6-8.3
		c0,0,1.3-0.3,1.7-0.3c0.3-0.1,0.4,0.1,0.3,0.3c-2.4,3.3-8.6,10-13.1,10c-4.4,0-4.9-3.3-3.3-9c0.3-1.3,1.7-6.5,1.7-6.5h-1
		c-1.1,0-2-1-2-1.4c0-0.1,0.1-0.2,0.3-0.2h3.1c0,0,6.1-22.7,6.2-23.2c1.1-4.1,3.1-4.8,5.2-4.8c1.7,0,2.9,1.5,2.9,4.9
		c0,6.9-4.5,16.5-8.5,23.1h2.4c1.1,0,2,1,2,1.4C-956.6-7.2-956.8-7.2-956.9-7.2z M-956.8-32.1c-0.5,1.8-5.5,20.5-6.3,23.3h0.1
		c1.4-2.2,8.8-14.7,8.8-23.2c0-2-0.4-2.9-1-2.9S-956.3-33.9-956.8-32.1z"/>
	<path class="st1" d="M-956.8,6.3c0.2-0.7,3.3-12.4,3.6-13.4c0.3-1.2,1-1.8,3-1.8c2.1,0,2.2,0.9,2.2,1.5c-0.3,1.7-2.2,4.2-2.2,4.2
		s-2.2,8.4-2.4,8.9c-0.1,0.3,0.1,0.5,0.3,0.5c0.1,0,0.1-0.1,0.2-0.1c2.9-1.5,6.9-5.6,8.6-7.8c0,0,1.3-0.3,1.7-0.3
		c0.3-0.1,0.4,0.1,0.3,0.3c-2.4,3.3-8.8,10-12.7,10C-956,8.3-957.1,7.5-956.8,6.3z M-946.5-14.7c0,1.2-1,2.2-2.2,2.2
		c-1,0-1.9-0.8-1.9-2s1-2.2,2.2-2.2C-947.4-16.6-946.5-15.7-946.5-14.7z"/>
	<path class="st1" d="M-937.8,8.3c-3.5,0-7.3-1.9-7.3-6.6c0-4.8,4.6-10.9,10.8-10.9c2.5,0,4.3,1.5,4.9,2.7c0.2,0.4-0.1,0.9-1.2,0.9
		c-0.5,0-1-0.1-1.2-0.4c-0.6-1-1.5-1.6-2.6-1.6c-2.5,0-6.8,4.9-6.8,9.4c0,2.7,1.8,5,3.4,5c4.8,0,9.2-6.2,10.9-8.4
		c0,0,1.3-0.3,1.7-0.3c0.3-0.1,0.4,0.1,0.3,0.3C-927.4,1.7-932.3,8.3-937.8,8.3z"/>
	<path class="st1" d="M-908.6-1.7c-2.4,3.3-7.4,10-13.8,10c-4.6,0-7.4-2.8-6.7-5.8c0.1-0.4,0.6-0.6,1-0.6c0.8,0,1.5,0.4,1.3,1
		c-0.6,2.1,1.7,3.9,3.8,3.9c1.5,0,3.8-1,3.8-2.9c0-2.4-3.6-4.5-4.7-7.1c0,0-0.5,0.9-1,1.6c0,0-1.3,0.3-1.7,0.3
		c-0.3,0.1-0.4-0.1-0.3-0.3c0.7-1,2-2.8,2.6-4.5c0.6-2,2.6-3,4.8-3c1.7,0,3,0.9,3.6,2.5c0.2,0.4,0,0.8-0.4,1
		c-0.1,0.1-0.3,0.1-0.4,0.1c-0.3,0-0.6-0.1-0.6-0.4c-0.3-0.8-0.9-1.5-1.7-1.5s-1.5,1.2-1.5,2.4c0,3.1,5.2,6,5.2,8.8
		c1.7-1.5,3-3.1,4.7-5.3c0,0,1.3-0.3,1.7-0.3C-908.6-2-908.5-1.9-908.6-1.7z"/>
</g>
<g>
	<g>
		<g>
			<g>
				<path class="st1" d="M87.3,106.2c-11.2-13.4-7.6-35.3,2.4-52.3c-9.7-6-62-6-62-6l4.3,46c0.9,10.1,5.1,19.7,11.3,27.8l1.6-1.1
					c8.4-5.6,18.9-8.1,29.2-8.1C62.8,99,53.6,83.8,46.8,67.4C55.1,81.1,74.3,97.7,87.3,106.2z"/>
			</g>
			<g>
				<path class="st1" d="M152.3,106.2c11.2-13.4,7.6-35.3-2.4-52.3c9.7-6,62-6,62-6l-4.3,46c-0.9,10.1-5.1,19.7-11.3,27.8l-1.6-1.1
					c-8.4-5.6-18.9-8.1-29.2-8.1C176.8,99,186,83.8,192.8,67.4C184.5,81.1,165.3,97.7,152.3,106.2z"/>
			</g>
			<g>
				<path class="st1" d="M43.9,142.3c25.3,8.8,67.1,1.7,58.8-11.7c-0.5-0.8-1.2-1.7-2.1-2.6l0,0c-1-1-2.3-2-3.8-3
					c-1.7-1.1-3.6-2.1-5.5-3l0,0c-13.5-5.8-32-4.8-43.8,3l-24.7,16.4c23.7,15.7,42.1,26.3,64.6,21.4c0,0,0,0,0.1,0
					c1.1-0.2,2.1-0.5,3.2-0.8c4.8-1.6,13.3-6,15-17.9C84.6,155.7,67,155.1,43.9,142.3z"/>
			</g>
			<g>
				<path class="st1" d="M133.9,144.2c1.7,11.8,10.2,16.3,15,17.9c1.1,0.3,2.1,0.6,3.2,0.8c0.1,0,0.1,0,0.1,0
					c22.6,4.9,41-5.7,64.6-21.4l-24.7-16.4c-11.8-7.9-30.3-8.9-43.8-3l0,0c-2,0.9-3.8,1.9-5.5,3c-1.5,1-2.8,2-3.8,3l0,0
					c-0.9,0.9-1.6,1.7-2.1,2.6c-8.2,13.4,33.6,20.5,58.8,11.7C172.6,155.1,155,155.7,133.9,144.2z"/>
			</g>
		</g>
		<g>
			<path class="st1" d="M127.7,113.6l-0.8,0.2V92.9c0-4.2-1.7-8.2-4.6-11.1c-0.1-0.1-0.1-0.2-0.1-0.3v-4.9l1.6-0.5v-0.8H116v0.8
				l1.6,0.5v4.9c0,0.1-0.1,0.3-0.1,0.3c-1.5,1.5-2.6,3.2-3.4,5.1s-1.2,3.9-1.2,6v20.9l0,0c-0.3-0.1-0.6-0.1-0.8-0.2
				c-17.6-4.7-27.4-24.9-19.4-42.4l26.7-58.3v49h-0.8c-0.3,0-0.5,0.3-0.5,0.6l-0.4,11.4h4.6l-0.4-11.4c0-0.4-0.2-0.6-0.5-0.6h-0.8
				V13l26.7,58.3C155.1,88.7,145.3,108.9,127.7,113.6z"/>
		</g>
		<g>
			<g>
				<path class="st1" d="M125.6,162.8h-3.3v-23.2h-2.5h-2.5v23.2H114c-0.5,0-1,0.4-1,1c0,0.5,0.4,1,1,1c1.9,0.4,3.9,0.6,5.8,0.6
					s3.9-0.2,5.8-0.6c0.5,0,1-0.5,1-1S126.1,162.8,125.6,162.8z"/>
			</g>
			<g>
				<path class="st1" d="M129.8,137.6c0,0.1,0,0.2-0.1,0.3l0,0c0,0.1-0.1,0.2-0.2,0.3c-0.1,0.1-0.3,0.2-0.6,0.2h-18.4
					c-0.2,0-0.4-0.1-0.6-0.2c-0.1-0.1-0.1-0.2-0.2-0.3l0,0c0-0.1-0.1-0.2-0.1-0.3s0-0.2,0.1-0.3l0,0c0-0.1,0.1-0.2,0.2-0.3
					c0.1-0.1,0.3-0.2,0.6-0.2h2.2v-22.9c1.8,0.4,3.6,0.7,5.6,0.8c0.5,0,1,0,1.5,0s1,0,1.5,0c1.9-0.1,3.8-0.3,5.5-0.8l0,0v22.9h2.2
					c0.2,0,0.4,0.1,0.6,0.2c0.1,0.1,0.1,0.2,0.2,0.3l0,0C129.8,137.4,129.8,137.5,129.8,137.6z"/>
			</g>
		</g>
		<g>
			<path class="st1" d="M129.8,137.6c0,0.1,0,0.2-0.1,0.3l0,0c0,0.1-0.1,0.2-0.2,0.3c-0.1,0.1-0.3,0.2-0.6,0.2h-18.4
				c-0.2,0-0.4-0.1-0.6-0.2c-0.1-0.1-0.1-0.2-0.2-0.3l0,0c0-0.1-0.1-0.2-0.1-0.3s0-0.2,0.1-0.3l0,0c0-0.1,0.1-0.2,0.2-0.3
				c0.1-0.1,0.3-0.2,0.6-0.2h2.2v-23.2l0,0v0.2c1.8,0.4,3.6,0.7,5.6,0.8c0.5,0,1,0,1.5,0s1,0,1.5,0c1.9-0.1,3.8-0.3,5.5-0.8v22.9
				h2.2c0.2,0,0.4,0.1,0.6,0.2c0.1,0.1,0.1,0.2,0.2,0.3l0,0C129.8,137.4,129.8,137.5,129.8,137.6z"/>
		</g>
	</g>
	<g>
		<path class="st1" d="M247.9,130.4c3.7,0,5.5,1.5,5.5,4.6c0,1.1-0.4,2.1-1.2,2.9c-0.8,0.8-1.9,1.3-3.2,1.5c1.5,0,2.8,0.5,3.9,1.4
			s1.6,2.1,1.6,3.6c0,3.5-2.4,5.2-7.1,5.2H239v-1l1.6,0.1c0.4,0,0.6-0.2,0.6-0.7v-16c0-0.4-0.2-0.6-0.5-0.6l-1.6,0.1v-1L247.9,130.4
			L247.9,130.4z M246.4,131.3h-1.9c-0.2,0-0.4,0.1-0.4,0.4v7.4h2.4c1.3,0,2.2-0.3,2.8-1s0.9-1.7,0.9-3c0-1.2-0.3-2.1-1-2.7
			S247.7,131.3,246.4,131.3z M247.5,140h-3.3v8.3c0,0.3,0.1,0.4,0.4,0.4h2.2c1.3,0,2.4-0.4,3.3-1.1c0.8-0.8,1.2-1.8,1.2-3.2
			c0-1.5-0.3-2.6-1-3.3C249.7,140.3,248.7,140,247.5,140z"/>
		<path class="st1" d="M263.1,149.8l-5.7-12.5c-0.1-0.3-0.3-0.4-0.5-0.4l-1.6,0.1v-0.8h7v0.8l-1.4-0.1c-0.1,0-0.3,0.1-0.4,0.2
			s-0.1,0.2,0,0.4l4.1,9L263.1,149.8z M268,137.4c0.1-0.3,0-0.5-0.3-0.5l-1.5,0.1v-0.8h5v0.8l-1.3-0.1h-0.1c-0.3,0-0.6,0.2-0.8,0.6
			l-6.8,16.3c-0.5,1.3-1.1,2.1-1.6,2.7s-1.3,0.8-2.1,0.8c-0.6,0-1-0.1-1.4-0.4c-0.4-0.3-0.6-0.7-0.7-1.2c0-0.6,0.1-1,0.4-1.2
			s0.5-0.4,0.8-0.4c0.4,0,0.7,0.1,0.9,0.3c0.2,0.2,0.3,0.4,0.5,0.7c0.1,0.2,0.3,0.3,0.6,0.3c0.6,0,1.1-0.5,1.5-1.5L268,137.4z"/>
		<path class="st1" d="M279.9,149.5v-0.9l1.2,0.1c0.4,0,0.6-0.2,0.6-0.7v-16c0-0.5-0.2-0.7-0.6-0.7l-1.2,0.1v-1h6.7v1l-1.2-0.1
			c-0.4,0-0.6,0.2-0.6,0.7v16c0,0.5,0.2,0.7,0.6,0.7l1.2-0.1v0.9H279.9z"/>
		<path class="st1" d="M293.9,136.1c-0.1,0.3-0.2,0.7-0.2,1.1v10.9c0,0.4,0.1,0.6,0.4,0.6l1.5-0.1v0.8h-6.2v-0.8l1.2,0.1
			c0.3-0.1,0.4-0.3,0.4-0.6v-10.7c0-0.4-0.1-0.6-0.4-0.6l-1.2,0.1v-0.8H293.9z M298.5,135.8c1.5,0,2.6,0.4,3.3,1.1
			c0.7,0.7,1,1.9,1,3.5v7.8c0,0.4,0.1,0.6,0.4,0.6l1.2-0.1v0.8h-6.2v-0.8l1.5,0.1c0.3-0.1,0.4-0.3,0.4-0.6v-7.3
			c0-1.4-0.1-2.4-0.3-3.1c-0.2-0.7-0.8-1-1.8-1c-1.3,0-2.4,0.6-3.1,1.8c-0.8,1.2-1.1,2.8-1.1,4.8l-0.1-4.1c0.4-1.1,1-1.9,1.9-2.6
			C296.3,136.1,297.3,135.8,298.5,135.8z"/>
		<path class="st1" d="M310.5,136.1v13.6c0,2.6-0.4,4.6-1.2,5.8s-1.9,1.8-3.4,1.8c-1,0-1.8-0.2-2.4-0.7c-0.6-0.4-0.8-0.9-0.8-1.5
			c0-0.9,0.5-1.4,1.5-1.4c0.2,0,0.4,0.1,0.7,0.2c0.3,0.1,0.4,0.4,0.4,0.7c0,0.2,0,0.3-0.1,0.5s-0.1,0.3-0.1,0.5c0,0.5,0.3,0.8,1,0.8
			c0.6,0,1-0.2,1.3-0.7c0.3-0.4,0.4-1.1,0.4-2c0-0.1,0-0.4,0-0.9s0-1,0-1.4v-13.9c0-0.4-0.1-0.6-0.4-0.6l-1.3,0.1v-0.8L310.5,136.1
			L310.5,136.1z M309,129c0.5,0,0.9,0.1,1.2,0.4c0.3,0.3,0.5,0.6,0.5,1.1s-0.2,0.9-0.5,1.1c-0.3,0.3-0.8,0.4-1.2,0.4
			c-0.5,0-0.9-0.1-1.2-0.4c-0.3-0.3-0.5-0.6-0.5-1.1s0.2-0.8,0.5-1.1C308,129.1,308.5,129,309,129z"/>
		<path class="st1" d="M320.6,135.8c1.7,0,3,0.5,4.1,1.6c1,1.1,1.6,2.5,1.6,4.4v0.9h-9.2c0,4,1.3,6,4,6c1.2,0,2.1-0.3,2.8-0.9
			c0.7-0.6,1.2-1.2,1.5-1.9l0.7,0.5c-0.4,1-1.2,1.9-2.2,2.4c-1,0.6-2.1,0.9-3.3,0.9c-2.3,0-3.9-0.6-4.9-1.8s-1.6-2.9-1.6-5.2
			s0.5-4.1,1.6-5.3S318.5,135.8,320.6,135.8z M320.6,136.7c-1.3,0-2.2,0.5-2.7,1.6s-0.8,2.3-0.8,3.7h5.8c0.4,0,0.6-0.4,0.6-1.1
			c0-1.4-0.2-2.5-0.7-3.2C322.5,137,321.7,136.7,320.6,136.7z"/>
		<path class="st1" d="M334.8,135.8c1.3,0,2.5,0.3,3.5,0.9c1,0.6,1.5,1.4,1.5,2.3c0,0.4-0.1,0.7-0.3,1.1c-0.2,0.3-0.6,0.5-1.2,0.5
			c-0.3,0-0.6-0.1-0.8-0.2c-0.2-0.1-0.3-0.4-0.3-0.7s0-0.5,0.1-0.7s0.1-0.4,0.1-0.7c0-0.6-0.3-1-0.8-1.3s-1.1-0.4-1.7-0.4
			c-1,0-1.8,0.4-2.5,1.2s-0.9,2.4-0.9,4.7c0,2.2,0.3,3.8,0.9,4.8c0.6,1.1,1.5,1.6,2.7,1.6c1,0,1.9-0.3,2.8-0.9s1.4-1.4,1.7-2.6
			l0.8,0.6c-0.4,1.1-1,2-1.9,2.7s-2.1,1-3.5,1c-2,0-3.6-0.6-4.7-1.9s-1.7-2.9-1.7-5.1c0-2.2,0.6-3.9,1.7-5.2
			C331.5,136.4,333,135.8,334.8,135.8z"/>
		<path class="st1" d="M346.5,132.8v3.3h3.5v0.8h-3.5v9.8c0,0.8,0.1,1.4,0.3,1.6c0.2,0.3,0.5,0.4,1,0.4c0.3,0,0.6-0.1,1-0.4
			c0.4-0.2,0.6-0.5,0.7-0.9l0.7,0.4c-0.2,0.6-0.6,1-1.1,1.3s-1.3,0.5-2.3,0.5c-1.1,0-1.9-0.3-2.3-0.8c-0.5-0.5-0.7-1.3-0.7-2.5v-9.6
			h-2v-0.8c1.2,0,2-0.2,2.5-0.6c0.5-0.4,0.9-1.3,1.2-2.7h1V132.8z"/>
		<path class="st1" d="M352.2,142.8c0-2.1,0.5-3.8,1.6-5.1s2.7-1.9,4.8-1.9s3.8,0.6,4.8,1.9s1.6,3,1.6,5.1c0,2.2-0.5,3.9-1.6,5.2
			s-2.7,1.9-4.8,1.9s-3.8-0.6-4.8-1.9C352.7,146.7,352.2,145,352.2,142.8z M355.1,142.9c0,2.1,0.3,3.7,0.8,4.7s1.4,1.5,2.7,1.5
			c1.3,0,2.2-0.5,2.7-1.5s0.8-2.5,0.8-4.7s-0.3-3.7-0.8-4.7s-1.4-1.5-2.7-1.5c-1.3,0-2.2,0.5-2.7,1.5S355.1,140.7,355.1,142.9z"/>
		<path class="st1" d="M371.6,148.2c0,0.4,0.1,0.6,0.4,0.6l2-0.1v0.8h-6.6v-0.8l1,0.1c0.3,0,0.4-0.2,0.4-0.6v-10.7
			c0-0.4-0.1-0.6-0.4-0.6l-1.2,0.1v-0.8h4.5c-0.1,0.3-0.2,0.8-0.2,1.5v10.5H371.6z M371.4,139.6c0.5-1.4,1.1-2.4,1.8-3
			c0.7-0.6,1.4-0.9,2.2-0.9c0.9,0,1.5,0.2,2,0.7c0.4,0.5,0.7,1.1,0.7,1.8c0,0.5-0.1,0.9-0.4,1.1s-0.6,0.4-1,0.4
			c-0.3,0-0.5-0.1-0.8-0.2c-0.3-0.1-0.4-0.4-0.4-0.8c0-0.3,0-0.5,0.1-0.7s0.1-0.4,0.1-0.7c0-0.4-0.2-0.7-0.7-0.7
			c-0.8,0-1.4,0.4-1.9,1.2s-0.9,1.7-1.1,2.7s-0.3,1.9-0.3,2.7L371.4,139.6z"/>
		<path class="st1" d="M379.8,140.1c0-3.2,0.8-5.6,2.5-7.4c1.7-1.7,4-2.6,7.1-2.6c1.1,0,2,0.1,2.7,0.3s1.3,0.5,1.9,0.7
			c0.6,0.2,1.3,0.4,2.1,0.4c0,0.4-0.1,0.8-0.1,1.2s0,0.8,0,1.2c0,1.1,0,1.7,0.1,1.8h-0.8c-0.3-1.3-1-2.4-2.1-3.4
			c-1.2-0.9-2.5-1.4-3.9-1.4c-1.9,0-3.4,0.8-4.5,2.5s-1.6,3.9-1.6,6.7c0,2.6,0.6,4.8,1.7,6.4c1.2,1.7,2.7,2.5,4.6,2.5
			c1.5,0,2.8-0.5,3.9-1.4s1.8-2.1,2.1-3.4h0.9c-0.1,0.6-0.1,1.2-0.2,1.7c0,0.5,0,0.8,0,1.1c0,0.6,0,1.1,0.1,1.5h-0.2
			c-0.8,0-1.8,0.2-3,0.7s-2.4,0.7-3.8,0.7c-2.9,0-5.2-0.9-6.9-2.6C380.7,145.5,379.8,143.1,379.8,140.1z"/>
		<path class="st1" d="M403.3,126.2v13.1v3.2v5.6c0,0.4,0.1,0.6,0.4,0.6l1.5-0.1v0.8H399v-0.8l1.2,0.1c0.3-0.1,0.4-0.3,0.4-0.6
			v-20.5c0-0.4-0.1-0.7-0.4-0.7L399,127v-0.8H403.3z M408.1,135.8c1.5,0,2.6,0.4,3.3,1.1c0.7,0.7,1,1.9,1,3.5v7.8
			c0,0.4,0.1,0.6,0.4,0.6l1.2-0.1v0.8h-6.2v-0.8l1.5,0.1c0.3-0.1,0.4-0.3,0.4-0.6v-7.3c0-1.4-0.1-2.4-0.3-3.1c-0.2-0.7-0.8-1-1.8-1
			c-1.3,0-2.4,0.6-3.1,1.8c-0.8,1.2-1.1,2.8-1.1,4.8l-0.1-4.1c0.4-1.1,1-1.9,1.9-2.6C405.9,136.1,406.9,135.8,408.1,135.8z"/>
		<path class="st1" d="M420.1,148.2c0,0.4,0.1,0.6,0.4,0.6l2-0.1v0.8h-6.6v-0.8l1,0.1c0.3,0,0.4-0.2,0.4-0.6v-10.7
			c0-0.4-0.1-0.6-0.4-0.6l-1.2,0.1v-0.8h4.5c-0.1,0.3-0.2,0.8-0.2,1.5L420.1,148.2L420.1,148.2z M419.9,139.6c0.5-1.4,1.1-2.4,1.8-3
			s1.4-0.9,2.2-0.9c0.9,0,1.5,0.2,2,0.7c0.4,0.5,0.7,1.1,0.7,1.8c0,0.5-0.1,0.9-0.4,1.1s-0.6,0.4-1,0.4c-0.3,0-0.5-0.1-0.8-0.2
			c-0.3-0.1-0.4-0.4-0.4-0.8c0-0.3,0-0.5,0.1-0.7s0.1-0.4,0.1-0.7c0-0.4-0.2-0.7-0.7-0.7c-0.8,0-1.4,0.4-1.9,1.2s-0.9,1.7-1.1,2.7
			c-0.2,1-0.3,1.9-0.3,2.7L419.9,139.6z"/>
		<path class="st1" d="M432.4,136.1v12.1c0,0.4,0.1,0.6,0.4,0.6l1.2-0.1v0.8h-5.9v-0.8l1.2,0.1c0.3,0,0.4-0.2,0.4-0.6v-10.7
			c0-0.4-0.1-0.6-0.4-0.6l-1.2,0.1v-0.8L432.4,136.1L432.4,136.1z M430.8,129c0.5,0,0.9,0.1,1.3,0.4s0.5,0.6,0.5,1.1
			s-0.2,0.9-0.5,1.1s-0.8,0.4-1.3,0.4s-0.9-0.1-1.2-0.4s-0.5-0.6-0.5-1.1s0.2-0.8,0.5-1.1S430.3,129,430.8,129z"/>
		<path class="st1" d="M436.4,149.2l0.2-4.2l0.8-0.1c0,1.2,0.5,2.2,1.4,2.9s2,1.1,3.2,1.1c1.8,0,2.7-0.8,2.7-2.4
			c0-0.6-0.2-1.1-0.5-1.5s-0.9-0.7-1.7-0.9l-3.1-0.9c-0.8-0.2-1.5-0.7-2-1.3s-0.8-1.4-0.8-2.3c0-1.2,0.4-2.1,1.3-2.8
			s2.1-1.1,3.6-1.1c0.9,0,1.6,0.1,2.2,0.4c0.6,0.2,1.1,0.4,1.7,0.4c0.3,0,0.6-0.1,0.9-0.3l-0.2,3.6h-0.7c0-0.8-0.3-1.6-1-2.2
			c-0.6-0.7-1.6-1-2.8-1c-0.8,0-1.5,0.2-1.9,0.7c-0.4,0.4-0.7,1-0.7,1.6c0,1,0.7,1.8,2,2.1l3.1,0.9c1.1,0.3,1.9,0.8,2.3,1.4
			c0.4,0.6,0.6,1.3,0.6,2.2c0,1.4-0.5,2.5-1.5,3.2s-2.3,1.1-3.8,1.1c-0.5,0-0.9,0-1.4-0.1s-1.2-0.3-2.2-0.6
			c-0.3-0.1-0.6-0.1-0.9-0.1C436.9,149,436.6,149.1,436.4,149.2z"/>
	</g>
	<g>
		<path class="st1" d="M267.1,104.1c0,0.5-2.6,2-6,2c-4.9,0-10.5-2.9-14.5-4.2c0,0-1.1,2.9-4.9,2.9c-1.6,0-2.6-1-2.6-2.3
			c0-1.8,1.7-2.9,3.3-2.9c0.5,0,1,0.1,1,0.1l6.9-25.8c-0.1-4.2,0.4-5.4,2.1-5.4c1.5,0,3.1,0.6,2.8,1.8c-0.1,0.5-8.1,30-8.1,30
			c4.5,1,10.3,4.3,13.8,4.3c1.2,0,2.3-0.8,2.5-1c0.3-0.3,0.9-0.4,1.5-0.4C266.1,103.3,267.1,103.6,267.1,104.1z M241.4,103.3
			c0.8,0,1.7-2,1.7-2s-0.3-0.1-0.7-0.1c-0.8,0-1.6,0.6-1.6,1.3C240.8,102.9,241,103.3,241.4,103.3z"/>
		<path class="st1" d="M294.8,94.6h0.1c0.2,0,0.3,0.1,0.1,0.3c-2.4,3.3-9.1,10-11.9,10c-1.5,0-2.9-0.6-2.6-2
			c0.1-0.6,0.9-3.4,0.9-3.4s-4,5.4-7.2,5.4c-3.8,0-5.6-2-3.8-9.2c0.8-2.9,1.6-5.8,1.7-6.2c0.3-1.2,1-1.8,3-1.8
			c2.1,0,2.2,0.9,2.2,1.5c-0.3,1.7-2.2,4.2-2.2,4.2s-0.3,1.2-0.7,2.7c-1.1,4-0.6,7.2,0.3,7.2c1.9,0,5.8-4.7,7.9-8
			c1-3.9,1.7-6.2,1.8-6.7c0.1-0.5,1-0.8,1.9-0.8c1,0,2,0.3,2,0.8c-0.2,0.6-2.7,10-3.5,13.2c-0.1,0.3,0.1,0.5,0.3,0.5
			c1,0,7-6.3,8-7.4C293.1,94.9,294.4,94.7,294.8,94.6z"/>
		<path class="st1" d="M311.3,94.9c-2.4,3.3-7.4,10-13.8,10c-4.6,0-7.4-2.8-6.7-5.8c0.1-0.4,0.6-0.6,1-0.6c0.8,0,1.5,0.4,1.3,1
			c-0.6,2.1,1.7,3.9,3.8,3.9c1.5,0,3.8-1,3.8-2.9c0-2.4-3.6-4.5-4.7-7.1c0,0-0.5,0.9-1,1.6c0,0-1.3,0.3-1.7,0.3
			c-0.3,0.1-0.4-0.1-0.3-0.3c0.7-1,2-2.8,2.6-4.5c0.6-2,2.6-3,4.8-3c1.7,0,3,0.9,3.6,2.5c0.2,0.4,0,0.8-0.4,1
			c-0.1,0.1-0.3,0.1-0.4,0.1c-0.3,0-0.6-0.1-0.6-0.4c-0.3-0.8-0.9-1.5-1.7-1.5c-0.8,0-1.5,1.2-1.5,2.4c0,3.1,5.2,6,5.2,8.8
			c1.7-1.5,3-3.1,4.7-5.3c0,0,1.3-0.3,1.7-0.3C311.4,94.6,311.5,94.7,311.3,94.9z"/>
		<path class="st1" d="M323.4,101.8c-0.1,0.3,0.1,0.4,0.3,0.4c1,0,7.1-6.2,8-7.4c0,0,1.3-0.3,1.7-0.3c0.3-0.1,0.4,0.1,0.3,0.3
			c-2.4,3.3-9.2,10-11.9,10c-1.8,0-2.9-0.8-2.6-2c0.1-0.6,2.8-10.6,3.5-13.1c0.1-0.4-0.1-0.6-0.4-0.6c-2,0-9.5,10.2-10.6,11.9
			c0,0-0.5,1.9-0.7,2.6c-0.1,0.6-1.2,0.8-2.1,0.8s-2-0.3-1.8-0.9c0.3-1,10.2-38,10.4-39c1.1-4.1,3.1-4.8,5.2-4.8
			c1.7,0,2.9,1.5,2.9,4.9c0,8.9-7.4,22.1-11.7,28l-1.2,4.3c0,0,6.7-9.5,10.2-9.5s3.6,2.1,3.5,2.8C326.4,90.7,324.2,99,323.4,101.8z
			 M324.2,64.7c0-2-0.4-2.9-1-2.9s-1.2,1-1.7,2.8c-0.5,1.9-6.3,23.5-6.3,23.5S324.2,74,324.2,64.7z"/>
		<path class="st1" d="M345.1,59.8c1.7,0,2.9,1.5,2.9,4.9c0,8.9-7.4,22.2-11.7,28l-1.2,4.3h1.8c3.2,0,6.6-0.6,8.1-2.1
			c0,0,1.3-0.3,1.7-0.3c0.1,0,0.1,0,0.1,0c0.2,0,0.3,0.1,0.1,0.3c-1.5,2.2-4.2,3.6-10.2,3.6h-2l-0.4,1.6c0,0,1.2,2,1.2,5.8
			c0,5.2-2.6,12.7-5.9,12.7c-2.7,0-3.8-1.3-2.8-5.3c0.5-1.9,3.9-14.5,3.9-14.5s-0.6-0.3-1.7-0.3c-0.4,0-0.8-0.3-0.8-0.8
			s0.3-0.8,0.8-0.8h2.2c0,0,8.6-32,8.7-32.4C341,60.5,343,59.8,345.1,59.8z M330.7,116.2c0.8,0,3.2-5.5,3.2-10.2
			c0-1.9-0.3-3.2-0.3-3.2s-2.8,10.3-2.9,10.8C330.5,114.7,330.1,116.2,330.7,116.2z M346.5,64.7c0-2-0.4-2.9-1-2.9s-1.2,1-1.7,2.8
			c-0.5,1.9-6.3,23.5-6.3,23.5S346.5,74,346.5,64.7z"/>
		<path class="st1" d="M369.1,94.6h0.1c0.2,0,0.3,0.1,0.1,0.3c-2.4,3.3-9.1,10-11.9,10c-1.5,0-2.9-0.6-2.6-2
			c0.1-0.6,0.9-3.4,0.9-3.4s-4,5.4-7.2,5.4c-3.8,0-5.6-2-3.8-9.2c0.8-2.9,1.6-5.8,1.7-6.2c0.3-1.2,1-1.8,3-1.8
			c2.1,0,2.2,0.9,2.2,1.5c-0.3,1.7-2.2,4.2-2.2,4.2s-0.3,1.2-0.7,2.7c-1.1,4-0.6,7.2,0.3,7.2c1.9,0,5.8-4.7,7.9-8
			c1-3.9,1.7-6.2,1.8-6.7c0.1-0.5,1-0.8,1.9-0.8c1,0,2,0.3,2,0.8c-0.2,0.6-2.7,10-3.5,13.2c-0.1,0.3,0.1,0.5,0.3,0.5
			c1,0,7-6.3,8-7.4C367.4,94.9,368.8,94.7,369.1,94.6z"/>
		<path class="st1" d="M383.7,64.7c0,8.9-7.5,22.2-11.8,28c0,0-0.9,3.2-1.2,4.4c-1,4.3-0.2,6.1,0.3,6.1c2.5,0,7.9-6,9.6-8.3
			c0,0,1.3-0.3,1.7-0.3c0.3-0.1,0.4,0.1,0.3,0.3c-2.4,3.3-7.9,10-12.2,10c-4.1,0-4.9-2.8-3.3-9c1.8-6.8,8.2-30.6,8.4-31.3
			c1.1-4.1,3.1-4.8,5.2-4.8C382.4,59.8,383.7,61.3,383.7,64.7z M382.2,64.7c0-2-0.4-2.9-1-2.9s-1.2,1-1.7,2.8
			c-0.5,1.9-6.3,23.5-6.3,23.5S382.2,74,382.2,64.7z"/>
		<path class="st1" d="M422.3,106.2c-1.7,0-3.1-0.7-3-2.4c0.1-0.4,1.3-13.8,1.3-13.8c-0.6-0.1-1-0.3-1-0.3S408.9,91,403,98.9
			c-0.2,0.3-3.3,4.5-3.6,4.9c-0.2,0.3-0.6,0.6-1.9,0.6c-1.2,0-2.3-0.5-2-1c0.2-0.3,24.6-33.2,24.8-33.5c0.7-1,1.7-1.5,3.1-1.5
			c1.5,0,3.2,0.7,3.1,2.2c0,0.4-1.7,17.1-1.7,17.1c1.1,0,2.6,0.4,2.6,1.5c0,1-1.5,1.5-2.9,1.5c0,0-1.2,12.8-1.3,13.1
			c-0.1,0.4,0,0.8,0.4,0.9s0.7,0.3,0.7,0.6C424.3,105.7,423.7,106.2,422.3,106.2z M422.3,72.8l-13.6,18.4c6.1-2.8,12.1-3.1,12.1-3.1
			L422.3,72.8z"/>
		<path class="st1" d="M428.3,98.3c0-4.9,4.7-10.9,10.7-10.9c2,0,3.5,1.3,3.5,2.6c0,3.2-5.9,4.9-9.7,5.4c0,0-0.6,1.5-0.6,2.9
			c0,2.8,1.8,5,3.5,5c5.1,0,9.3-6.2,11-8.4c0,0,1.3-0.3,1.7-0.3c0.3-0.1,0.4,0.1,0.3,0.3c-2.4,3.3-7.2,9.9-12.9,9.9
			C432.2,104.9,428.3,103.1,428.3,98.3z M439.1,89c-1.5,0-3.9,1.9-5.5,4.7c3.3-0.7,6.5-1.7,6.5-3.8C440,89.3,439.7,89,439.1,89z"/>
		<path class="st1" d="M464.9,94.9c-2.4,3.3-7.4,10-13.8,10c-4.6,0-7.4-2.8-6.7-5.8c0.1-0.4,0.6-0.6,1-0.6c0.8,0,1.5,0.4,1.3,1
			c-0.6,2.1,1.7,3.9,3.8,3.9c1.5,0,3.8-1,3.8-2.9c0-2.4-3.6-4.5-4.7-7.1c0,0-0.5,0.9-1,1.6c0,0-1.3,0.3-1.7,0.3
			c-0.3,0.1-0.4-0.1-0.3-0.3c0.7-1,2-2.8,2.6-4.5c0.6-2,2.6-3,4.8-3c1.7,0,3,0.9,3.6,2.5c0.2,0.4,0,0.8-0.4,1
			c-0.1,0.1-0.3,0.1-0.4,0.1c-0.3,0-0.6-0.1-0.6-0.4c-0.3-0.8-0.9-1.5-1.7-1.5s-1.5,1.2-1.5,2.4c0,3.1,5.2,6,5.2,8.8
			c1.7-1.5,3-3.1,4.7-5.3c0,0,1.3-0.3,1.7-0.3C465,94.6,465.1,94.7,464.9,94.9z"/>
		<path class="st1" d="M475,89.4h-5.2c-0.8,1.2-1.6,2.4-2.2,3.3c0,0-0.9,3.3-1.2,4.4c-1,4.3-0.2,6.1,0.3,6.1c3.1,0,8.9-6,10.6-8.3
			c0,0,1.3-0.3,1.7-0.3c0.3-0.1,0.4,0.1,0.3,0.3c-2.4,3.3-8.6,10-13.1,10c-4.4,0-4.9-3.3-3.3-9c0.3-1.3,1.7-6.5,1.7-6.5h-0.9
			c-1.1,0-2-1-2-1.4c0-0.1,0.1-0.2,0.3-0.2h3.1c0,0,6.1-22.7,6.2-23.2c1.1-4.1,3.1-4.8,5.2-4.8c1.7,0,2.9,1.5,2.9,4.9
			c0,6.9-4.5,16.5-8.5,23.1h2.4c1.1,0,2,1,2,1.4C475.2,89.4,475.1,89.4,475,89.4z M475.1,64.5c-0.5,1.8-5.5,20.5-6.3,23.3h0.1
			c1.4-2.2,8.8-14.7,8.8-23.2c0-2-0.4-2.9-1-2.9S475.6,62.7,475.1,64.5z"/>
		<path class="st1" d="M491.3,101.8c-0.1,0.3,0.1,0.4,0.3,0.4c1,0,7.1-6.2,8-7.4c0,0,1.3-0.3,1.7-0.3c0.3-0.1,0.4,0.1,0.3,0.3
			c-2.4,3.3-9.2,10-11.9,10c-1.8,0-2.9-0.8-2.6-2c0.1-0.6,2.8-10.6,3.5-13.1c0.1-0.4-0.1-0.6-0.4-0.6c-2,0-9.5,10.2-10.6,11.9
			c0,0-0.5,1.9-0.7,2.6c-0.1,0.6-1.2,0.8-2.1,0.8s-2-0.3-1.8-0.9c0.3-1,10.2-38,10.4-39c1.1-4.1,3.1-4.8,5.2-4.8
			c1.7,0,2.9,1.5,2.9,4.9c0,8.9-7.4,22.1-11.7,28l-1.2,4.3c0,0,6.7-9.5,10.2-9.5s3.6,2.1,3.5,2.8C494.3,90.7,492.1,99,491.3,101.8z
			 M492.1,64.7c0-2-0.4-2.9-1-2.9s-1.2,1-1.7,2.8c-0.5,1.9-6.3,23.5-6.3,23.5S492.1,74,492.1,64.7z"/>
		<path class="st1" d="M498,98.3c0-4.9,4.7-10.9,10.7-10.9c2,0,3.5,1.3,3.5,2.6c0,3.2-5.9,4.9-9.7,5.4c0,0-0.6,1.5-0.6,2.9
			c0,2.8,1.8,5,3.5,5c5.1,0,9.3-6.2,11-8.4c0,0,1.3-0.3,1.7-0.3c0.3-0.1,0.4,0.1,0.3,0.3c-2.4,3.3-7.2,9.9-12.9,9.9
			C501.8,104.9,498,103.1,498,98.3z M508.7,89c-1.5,0-3.9,1.9-5.5,4.7c3.3-0.7,6.5-1.7,6.5-3.8C509.7,89.3,509.3,89,508.7,89z"/>
		<path class="st1" d="M528.3,89.4h-5.2c-0.8,1.2-1.6,2.4-2.2,3.3c0,0-0.9,3.3-1.2,4.4c-1,4.3-0.2,6.1,0.3,6.1c3.1,0,8.9-6,10.6-8.3
			c0,0,1.3-0.3,1.7-0.3c0.3-0.1,0.4,0.1,0.3,0.3c-2.4,3.3-8.6,10-13.1,10c-4.4,0-4.9-3.3-3.3-9c0.3-1.3,1.7-6.5,1.7-6.5h-1
			c-1.1,0-2-1-2-1.4c0-0.1,0.1-0.2,0.3-0.2h3.1c0,0,6.1-22.7,6.2-23.2c1.1-4.1,3.1-4.8,5.2-4.8c1.7,0,2.9,1.5,2.9,4.9
			c0,6.9-4.5,16.5-8.5,23.1h2.4c1.1,0,2,1,2,1.4C528.6,89.4,528.4,89.4,528.3,89.4z M528.4,64.5c-0.5,1.8-5.5,20.5-6.3,23.3h0.1
			c1.4-2.2,8.8-14.7,8.8-23.2c0-2-0.4-2.9-1-2.9S528.9,62.7,528.4,64.5z"/>
		<path class="st1" d="M528.4,102.9c0.2-0.7,3.3-12.4,3.6-13.4c0.3-1.2,1-1.8,3-1.8c2.1,0,2.2,0.9,2.2,1.5c-0.3,1.7-2.2,4.2-2.2,4.2
			s-2.2,8.4-2.4,8.9c-0.1,0.3,0.1,0.5,0.3,0.5c0.1,0,0.1-0.1,0.2-0.1c2.9-1.5,6.9-5.6,8.6-7.8c0,0,1.3-0.3,1.7-0.3
			c0.3-0.1,0.4,0.1,0.3,0.3c-2.4,3.3-8.8,10-12.7,10C529.2,104.9,528.1,104.1,528.4,102.9z M538.7,81.9c0,1.2-1,2.2-2.2,2.2
			c-1,0-1.9-0.8-1.9-2s1-2.2,2.2-2.2C537.8,80,538.7,80.9,538.7,81.9z"/>
		<path class="st1" d="M547.4,104.9c-3.5,0-7.3-1.9-7.3-6.6c0-4.8,4.6-10.9,10.8-10.9c2.5,0,4.3,1.5,4.9,2.7
			c0.2,0.4-0.1,0.9-1.2,0.9c-0.5,0-1-0.1-1.2-0.4c-0.6-1-1.5-1.6-2.6-1.6c-2.5,0-6.8,4.9-6.8,9.4c0,2.7,1.8,5,3.4,5
			c4.8,0,9.2-6.2,10.9-8.4c0,0,1.3-0.3,1.7-0.3c0.3-0.1,0.4,0.1,0.3,0.3C557.8,98.3,552.9,104.9,547.4,104.9z"/>
		<path class="st1" d="M576.6,94.9c-2.4,3.3-7.4,10-13.8,10c-4.6,0-7.4-2.8-6.7-5.8c0.1-0.4,0.6-0.6,1-0.6c0.8,0,1.5,0.4,1.3,1
			c-0.6,2.1,1.7,3.9,3.8,3.9c1.5,0,3.8-1,3.8-2.9c0-2.4-3.6-4.5-4.7-7.1c0,0-0.5,0.9-1,1.6c0,0-1.3,0.3-1.7,0.3
			c-0.3,0.1-0.4-0.1-0.3-0.3c0.7-1,2-2.8,2.6-4.5c0.6-2,2.6-3,4.8-3c1.7,0,3,0.9,3.6,2.5c0.2,0.4,0,0.8-0.4,1
			c-0.1,0.1-0.3,0.1-0.4,0.1c-0.3,0-0.6-0.1-0.6-0.4c-0.3-0.8-0.9-1.5-1.7-1.5s-1.5,1.2-1.5,2.4c0,3.1,5.2,6,5.2,8.8
			c1.7-1.5,3-3.1,4.7-5.3c0,0,1.3-0.3,1.7-0.3C576.6,94.6,576.7,94.7,576.6,94.9z"/>
	</g>
</g>
</svg>
