<?xml version="1.0" encoding="utf-8"?>
<!-- Generator: Adobe Illustrator 26.3.1, SVG Export Plug-In . SVG Version: 6.00 Build 0)  -->
<svg version="1.1" id="Lushful_Aesthetic" xmlns="http://www.w3.org/2000/svg" xmlns:xlink="http://www.w3.org/1999/xlink" x="0px"
	 y="0px" viewBox="0 0 950 950" style="enable-background:new 0 0 950 950;" xml:space="preserve" aria-hidden="true"> 
<style type="text/css">
	.st0{fill:#A4A48C;}
</style>
<g>
	<g>
		<g>
			<path class="st0" d="M328.2,552.2c-50.6-60.5-34.3-159.3,10.7-236.5c-43.8-27.2-280-27.2-280-27.2l19.5,208.1
				c4.3,45.5,23,89,51.2,125.6l7.2-4.8c37.8-25.1,85.5-36.6,131.9-36.6c-51-61.2-92.7-129.9-123.3-203.7
				C182.5,438.4,269.5,513.7,328.2,552.2z"/>
		</g>
		<g>
			<path class="st0" d="M621.7,552.2c50.6-60.5,34.3-159.3-10.7-236.5c43.8-27.2,280-27.2,280-27.2l-19.5,208.1
				c-4.3,45.5-23,89-51.2,125.6l-7.2-4.8c-37.8-25.1-85.5-36.6-131.9-36.6c51-61.2,92.7-129.9,123.3-203.7
				C767.4,438.4,680.4,513.7,621.7,552.2z"/>
		</g>
		<g>
			<path class="st0" d="M132.1,715.2c114.3,39.6,303.1,7.6,265.9-53c-2.3-3.8-5.5-7.7-9.7-11.7c0,0,0,0-0.1-0.1
				c-4.5-4.3-10.2-8.8-17.2-13.4c-7.8-5.1-16.2-9.6-25-13.5c-0.1,0-0.2-0.1-0.2-0.1C284.7,597,201.5,601.5,147.9,637L36.4,711
				c106.9,70.9,190.2,118.8,292.1,96.8c0,0,0.2,0,0.5-0.1c4.8-1,9.6-2.2,14.4-3.6c21.6-7.1,60.1-27.2,67.9-80.7
				C316,775.5,236.6,773.1,132.1,715.2z"/>
		</g>
		<g>
			<path class="st0" d="M538.7,723.5c7.8,53.5,46.3,73.6,67.9,80.7c4.9,1.4,9.6,2.6,14.4,3.6c0.3,0,0.5,0.1,0.5,0.1
				c101.9,22,185.2-26,292.1-96.8L802.1,637c-53.5-35.5-136.8-40-197.9-13.6c0,0-0.1,0-0.2,0.1c-8.8,3.9-17.3,8.4-25,13.5
				c-6.9,4.6-12.6,9.1-17.2,13.4c0,0,0,0-0.1,0.1c-4.2,4-7.4,7.9-9.7,11.7c-37.2,60.6,151.6,92.6,265.9,53
				C713.4,773.1,634,775.5,538.7,723.5z"/>
		</g>
	</g>
	<g>
		<path class="st0" d="M510.6,585.5l-3.8,0.9v-94.6c0-18.8-7.5-36.8-20.8-50.1c-0.4-0.4-0.6-0.9-0.6-1.6v-22.1l7.1-2.1v-3.8h-35.1
			v3.8l7.1,2.1v22.1c0,0.6-0.2,1.2-0.6,1.6c-6.7,6.7-11.8,14.5-15.4,23c-3.6,8.5-5.4,17.7-5.4,27.1v94.6h0c-1.3-0.3-2.5-0.6-3.8-0.9
			c-79.4-21.2-123.9-112.6-87.8-191.6l120.7-263.4v221.3h-3.5c-1.2,0-2.3,1.3-2.3,2.9l-1.9,51.6h20.9l-1.9-51.6
			c0-1.6-1.1-2.9-2.3-2.9h-3.5V130.7l120.6,263.2C634.6,472.9,590,564.2,510.6,585.5z"/>
	</g>
	<g>
		<g>
			<path class="st0" d="M501.1,807.9h-15V703.1H475h-11.1v104.8h-15c-2.4,0-4.4,2-4.4,4.4c0,2.4,2,4.5,4.4,4.5
				c8.7,1.7,17.4,2.6,26.1,2.7c8.7-0.1,17.5-1,26.1-2.7c2.4,0,4.4-2.1,4.4-4.5C505.6,809.9,503.6,807.9,501.1,807.9z"/>
		</g>
		<g>
			<path class="st0" d="M520.3,693.7c0,0.5-0.1,1-0.3,1.4c0,0,0,0,0,0c-0.2,0.4-0.5,0.8-0.8,1.1c-0.6,0.6-1.6,1.1-2.6,1.1h-83.3
				c-1,0-1.9-0.4-2.5-1.1c-0.3-0.3-0.6-0.7-0.8-1.1c0,0,0,0,0,0c-0.2-0.4-0.3-0.9-0.3-1.4c0-0.5,0.1-1,0.3-1.4c0,0,0,0,0,0
				c0.2-0.4,0.5-0.8,0.8-1.1c0.6-0.7,1.5-1.1,2.5-1.1h9.9V586.4c8.1,1.9,16.4,3.2,25.1,3.5c2.2,0.1,4.5,0.2,6.7,0.2
				c2.3,0,4.5-0.1,6.8-0.2c8.7-0.4,17.1-1.6,25.1-3.5h0v103.6h9.8c1,0,1.9,0.4,2.6,1.1c0.3,0.3,0.6,0.7,0.8,1.1c0,0,0,0,0,0
				C520.2,692.7,520.3,693.2,520.3,693.7z"/>
		</g>
	</g>
	<g>
		<path class="st0" d="M520.2,693.7c0,0.5-0.1,1-0.3,1.4c0,0,0,0,0,0c-0.2,0.4-0.5,0.8-0.8,1.1c-0.6,0.6-1.6,1.1-2.6,1.1h-83.3
			c-1,0-1.9-0.4-2.5-1.1c-0.3-0.3-0.6-0.7-0.8-1.1c0,0,0,0,0,0c-0.2-0.4-0.3-0.9-0.3-1.4c0-0.5,0.1-1,0.3-1.4c0,0,0,0,0,0
			c0.2-0.4,0.5-0.8,0.8-1.1c0.6-0.7,1.5-1.1,2.5-1.1h9.8V585.4h0v1c8.1,1.9,16.4,3.2,25.1,3.5c2.2,0.1,4.5,0.2,6.7,0.2
			c2.3,0,4.5-0.1,6.8-0.2c8.7-0.4,17.1-1.6,25.1-3.5v103.6h9.8c1,0,1.9,0.4,2.6,1.1c0.3,0.3,0.6,0.7,0.8,1.1c0,0,0,0,0,0
			C520.1,692.7,520.2,693.2,520.2,693.7z"/>
	</g>
</g>
</svg>
