<?xml version="1.0" encoding="UTF-8"?>
<svg id="Lushful_Aesthetic" role="navigation" aria-label="Logo link to homepage" xmlns="http://www.w3.org/2000/svg" viewBox="0 0 885.9 196.25">
<defs><style>.cls-1{fill:#a4a48c;}</style></defs><g><g><path class="cls-1" d="M83.11,120.1c-14.4-17.23-9.77-45.38,3.04-67.37-12.49-7.73-79.75-7.73-79.75-7.73l5.56,59.26c1.21,12.95,6.54,25.34,14.57,35.78l2.06-1.37c10.78-7.15,24.36-10.41,37.58-10.43-14.54-17.44-26.39-36.99-35.13-58.03,10.57,17.47,35.35,38.93,52.07,49.89Z"/><path class="cls-1" d="M166.72,120.1c14.4-17.23,9.77-45.38-3.04-67.37,12.49-7.73,79.75-7.73,79.75-7.73l-5.56,59.26c-1.21,12.95-6.54,25.34-14.57,35.78l-2.06-1.37c-10.78-7.15-24.36-10.41-37.58-10.43,14.54-17.44,26.39-36.99,35.13-58.03-10.57,17.47-35.35,38.93-52.07,49.89Z"/><path class="cls-1" d="M27.27,166.54c32.54,11.28,86.32,2.17,75.73-15.09-.65-1.08-1.56-2.18-2.76-3.33t-.02-.02c-1.29-1.24-2.91-2.52-4.89-3.82-2.22-1.46-4.61-2.74-7.13-3.85-.03-.01-.06-.02-.06-.02-17.41-7.52-41.12-6.24-56.37,3.87L0,165.34c30.44,20.19,54.17,33.85,83.19,27.58,0,0,.04-.01,.13-.02,1.36-.29,2.72-.63,4.1-1.02,6.16-2.04,17.13-7.74,19.34-22.99-27.12,14.83-49.75,14.15-79.5-2.35Z"/><path class="cls-1" d="M143.08,168.89c2.22,15.25,13.18,20.95,19.34,22.99,1.38,.39,2.74,.73,4.1,1.02,.09,.01,.13,.02,.13,.02,29.02,6.26,52.75-7.4,83.19-27.58l-31.77-21.06c-15.25-10.11-38.96-11.39-56.37-3.87,0,0-.02,.01-.06,.02-2.52,1.1-4.91,2.38-7.13,3.85-1.98,1.3-3.6,2.59-4.89,3.82t-.02,.02c-1.19,1.15-2.1,2.25-2.76,3.33-10.59,17.26,43.18,26.37,75.73,15.09-29.75,16.5-52.38,17.18-79.5,2.35Z"/></g><path class="cls-1" d="M135.07,129.59l-1.08,.27v-26.95c0-5.35-2.13-10.49-5.91-14.28-.11-.11-.18-.27-.18-.45v-6.31l2.02-.58v-1.07h-9.99v1.07l2.02,.58v6.31c0,.18-.07,.34-.18,.45-1.9,1.9-3.37,4.13-4.37,6.56-1.01,2.43-1.54,5.05-1.54,7.73v26.94h-.01c-.36-.08-.72-.17-1.08-.27-22.61-6.05-35.3-32.06-25-54.56L124.14,0V63.04h-.99c-.35,0-.64,.37-.65,.83l-.55,14.69h5.96l-.55-14.69c-.01-.46-.3-.83-.65-.83h-.99V.05l34.35,74.97c10.31,22.5-2.38,48.52-25,54.57Z"/><g><path class="cls-1" d="M132.37,192.94h-4.28v-29.84h-6.32v29.84h-4.28c-.7,0-1.26,.56-1.26,1.26s.56,1.27,1.26,1.27c2.47,.48,4.96,.74,7.44,.78,2.49-.03,4.97-.29,7.44-.78,.7,0,1.26-.58,1.26-1.27s-.56-1.26-1.26-1.26Z"/><path class="cls-1" d="M137.83,160.42c0,.15-.03,.28-.09,.4h0c-.04,.13-.13,.25-.22,.34-.18,.18-.45,.3-.73,.3h-23.73c-.28,0-.54-.11-.72-.3-.09-.09-.17-.2-.22-.33-.01-.01,0-.01,0-.01-.06-.12-.08-.26-.08-.4s.02-.28,.08-.4c0,0-.01,0,0-.01,.06-.12,.13-.24,.22-.33,.18-.19,.44-.3,.72-.3h2.81v-29.53c2.29,.55,4.68,.9,7.15,1,.63,.03,1.27,.06,1.9,.06s1.29-.02,1.92-.06c2.47-.1,4.86-.45,7.14-.99h.01v29.52h2.79c.28,0,.55,.11,.73,.3,.09,.09,.18,.2,.22,.33h0c.06,.13,.09,.27,.09,.42Z"/></g><path class="cls-1" d="M137.82,160.42c0,.15-.03,.28-.08,.4h0c-.06,.13-.13,.25-.22,.34-.18,.18-.45,.3-.73,.3h-23.73c-.28,0-.54-.11-.72-.3-.09-.09-.17-.2-.22-.33-.01-.01,0-.01,0-.01-.06-.12-.09-.26-.09-.4s.03-.28,.09-.4c0,0-.01,0,0-.01,.06-.12,.13-.24,.22-.33,.18-.19,.44-.3,.72-.3h2.8v-29.81h.01v.28c2.29,.55,4.68,.9,7.15,1,.63,.03,1.27,.06,1.9,.06s1.29-.02,1.92-.06c2.47-.1,4.86-.45,7.14-.99v29.52h2.8c.28,0,.55,.11,.73,.3,.09,.09,.17,.2,.22,.33h0c.05,.13,.08,.27,.08,.42Z"/></g><g><g><path class="cls-1" d="M287.45,134.73c6.72,0,10.08,2.78,10.08,8.33,0,2.06-.74,3.8-2.21,5.22-1.48,1.42-3.42,2.34-5.83,2.77,2.76,0,5.11,.85,7.05,2.56,1.94,1.71,2.91,3.87,2.91,6.47,0,6.3-4.29,9.44-12.88,9.44h-15.27v-1.69l2.92,.12c.7,0,1.05-.43,1.05-1.28v-29.15c0-.78-.33-1.17-.99-1.17l-2.97,.12v-1.75h16.15Zm-2.68,1.63h-3.38c-.43,0-.66,.23-.7,.7v13.41h4.43c2.29,0,4.01-.61,5.16-1.84,1.15-1.22,1.72-3.06,1.72-5.51,0-2.1-.63-3.75-1.89-4.95s-3.04-1.81-5.33-1.81Zm1.92,15.74h-6v15.04c0,.51,.27,.76,.82,.76h4.08c2.45,0,4.43-.69,5.95-2.07,1.52-1.38,2.27-3.29,2.27-5.74,0-2.68-.6-4.68-1.81-6.01-1.2-1.32-2.97-1.98-5.3-1.98Z"/><path class="cls-1" d="M315.25,170.05l-10.43-22.85c-.23-.51-.54-.76-.93-.76l-2.86,.12v-1.52h12.77v1.52l-2.62-.12c-.27,0-.49,.11-.64,.32s-.17,.44-.06,.67l7.4,16.32-2.62,6.3Zm8.92-22.73c.23-.58,.04-.87-.58-.87l-2.74,.12v-1.52h9.04v1.52l-2.39-.12h-.12c-.62,0-1.11,.37-1.46,1.11l-12.3,29.67c-.93,2.29-1.92,3.91-2.97,4.84s-2.35,1.4-3.91,1.4c-1.01,0-1.89-.24-2.62-.73-.74-.49-1.15-1.2-1.22-2.13,0-1.01,.24-1.76,.73-2.24s1-.73,1.55-.73c.78,0,1.33,.2,1.66,.61,.33,.41,.61,.82,.85,1.22,.23,.41,.62,.61,1.17,.61,1.09,0,1.98-.89,2.68-2.68l12.65-30.08Z"/><path class="cls-1" d="M345.79,169.53v-1.69l2.27,.12c.74,0,1.11-.43,1.11-1.28v-29.09c0-.85-.37-1.26-1.11-1.22l-2.27,.12v-1.75h12.24v1.75l-2.27-.12c-.78-.08-1.17,.33-1.17,1.22v29.09c0,.86,.39,1.28,1.17,1.28l2.27-.12v1.69h-12.24Z"/><path class="cls-1" d="M371.21,145.04c-.19,.58-.29,1.26-.29,2.04v19.94c0,.74,.25,1.11,.76,1.11l2.68-.12v1.52h-11.37v-1.52l2.16,.12c.51-.12,.76-.49,.76-1.11v-19.41c0-.66-.25-1.05-.76-1.17l-2.16,.12v-1.52h8.22Zm8.45-.58c2.76,0,4.75,.65,5.97,1.95,1.22,1.3,1.84,3.41,1.84,6.33v14.28c0,.74,.25,1.11,.76,1.11l2.16-.12v1.52h-11.37v-1.52l2.68,.12c.51-.12,.76-.49,.76-1.11v-13.23c0-2.49-.2-4.35-.61-5.6-.41-1.24-1.51-1.87-3.29-1.87-2.41,0-4.31,1.1-5.71,3.29-1.4,2.2-2.04,5.08-1.92,8.66l-.23-7.4c.74-1.94,1.89-3.5,3.44-4.66,1.55-1.17,3.4-1.75,5.54-1.75Z"/><path class="cls-1" d="M401.52,145.04v24.72c0,4.82-.71,8.34-2.13,10.58s-3.49,3.35-6.21,3.35c-1.87,0-3.31-.4-4.34-1.2-1.03-.8-1.54-1.7-1.54-2.71,0-1.71,.91-2.57,2.74-2.57,.31,0,.73,.1,1.25,.29,.52,.19,.79,.64,.79,1.34,0,.31-.06,.62-.17,.93-.12,.31-.18,.6-.18,.88,0,.97,.6,1.46,1.81,1.46,1.01,0,1.78-.41,2.3-1.22,.52-.82,.79-2.02,.79-3.61,0-.15-.02-.73-.06-1.72-.04-.99-.06-1.86-.06-2.59v-25.36c0-.78-.25-1.17-.76-1.17l-2.39,.12v-1.52h8.16Zm-2.8-13c.89,0,1.65,.24,2.27,.73,.62,.49,.93,1.16,.93,2.01s-.31,1.59-.93,2.07c-.62,.49-1.38,.73-2.27,.73s-1.69-.24-2.27-.73c-.58-.49-.88-1.18-.88-2.07s.29-1.52,.88-2.01c.58-.49,1.34-.73,2.27-.73Z"/><path class="cls-1" d="M419.94,144.46c3.07,0,5.55,.97,7.43,2.91,1.88,1.94,2.87,4.64,2.94,8.1v1.69h-16.79c0,7.31,2.45,10.98,7.35,11.02,2.1,0,3.8-.53,5.1-1.6,1.3-1.07,2.22-2.22,2.77-3.47l1.34,.99c-.78,1.9-2.1,3.38-3.96,4.43-1.87,1.05-3.89,1.57-6.06,1.57-4.12,0-7.12-1.1-9.01-3.29-1.89-2.2-2.83-5.35-2.83-9.47s.99-7.44,2.97-9.62,4.9-3.26,8.74-3.26Zm0,1.57c-2.33,0-3.97,.96-4.93,2.89-.95,1.92-1.43,4.19-1.43,6.79h10.61c.78,0,1.17-.64,1.17-1.92,0-2.6-.41-4.55-1.22-5.83-.82-1.28-2.22-1.92-4.2-1.92Z"/><path class="cls-1" d="M445.88,144.46c2.41,0,4.52,.56,6.33,1.69,1.81,1.13,2.71,2.55,2.71,4.26,0,.7-.2,1.36-.61,1.98-.41,.62-1.14,.93-2.19,.93-.62,0-1.12-.14-1.49-.41-.37-.27-.56-.72-.56-1.34,0-.47,.09-.87,.26-1.22,.17-.35,.26-.78,.26-1.28,0-1.05-.47-1.81-1.43-2.3-.95-.49-1.99-.73-3.12-.73-1.86,0-3.36,.76-4.49,2.27s-1.69,4.37-1.69,8.57c0,3.93,.54,6.85,1.63,8.77,1.09,1.92,2.74,2.89,4.95,2.89,1.83,0,3.53-.52,5.1-1.57s2.61-2.6,3.12-4.66l1.4,1.05c-.66,2.02-1.83,3.65-3.5,4.9-1.67,1.24-3.81,1.87-6.41,1.87-3.69,0-6.57-1.13-8.63-3.38s-3.09-5.32-3.09-9.21,1.05-7.18,3.15-9.53c2.1-2.35,4.86-3.53,8.28-3.53Z"/><path class="cls-1" d="M467.1,139.1v5.95h6.41v1.46h-6.41v17.89c0,1.48,.18,2.48,.52,3,.35,.52,.97,.79,1.87,.79,.54,0,1.14-.22,1.78-.67,.64-.45,1.06-1,1.25-1.66l1.22,.76c-.39,1.05-1.07,1.86-2.04,2.42-.97,.56-2.35,.85-4.14,.85-1.98,0-3.39-.47-4.22-1.4-.84-.93-1.25-2.45-1.25-4.55v-17.43h-3.5v-1.46c2.18,0,3.71-.35,4.61-1.05,.89-.7,1.65-2.33,2.27-4.9h1.63Z"/><path class="cls-1" d="M477.41,157.23c0-3.85,.97-6.94,2.91-9.27s4.88-3.5,8.8-3.5,6.86,1.17,8.8,3.5,2.92,5.42,2.92,9.27-.97,7.05-2.92,9.39c-1.94,2.33-4.88,3.5-8.8,3.5s-6.86-1.17-8.8-3.5c-1.94-2.33-2.91-5.46-2.91-9.39Zm5.3,.12c0,3.89,.49,6.72,1.46,8.51s2.62,2.68,4.95,2.68,3.98-.89,4.96-2.68c.97-1.79,1.46-4.63,1.46-8.51s-.49-6.79-1.46-8.6c-.97-1.81-2.62-2.71-4.96-2.71s-3.98,.9-4.95,2.71c-.97,1.81-1.46,4.67-1.46,8.6Z"/><path class="cls-1" d="M512.8,167.02c0,.74,.25,1.11,.76,1.11l3.55-.12v1.52h-11.95v-1.52l1.87,.12c.5,0,.76-.37,.76-1.11v-19.41c0-.78-.25-1.17-.76-1.17l-2.1,.12v-1.52h8.22c-.23,.62-.35,1.52-.35,2.68v19.29Zm-.35-15.56c.97-2.57,2.05-4.37,3.24-5.42,1.18-1.05,2.5-1.57,3.93-1.57,1.59,0,2.79,.45,3.59,1.34,.8,.89,1.19,1.96,1.19,3.21,0,.93-.23,1.62-.7,2.07s-1.05,.67-1.75,.67c-.47,0-.94-.14-1.43-.41-.49-.27-.73-.74-.73-1.4,0-.54,.08-.99,.23-1.34,.15-.35,.23-.78,.23-1.28,0-.81-.45-1.22-1.34-1.22-1.4,0-2.57,.7-3.5,2.1-.93,1.4-1.62,3.03-2.07,4.9-.45,1.87-.63,3.5-.55,4.9l-.35-6.53Z"/><path class="cls-1" d="M527.83,152.33c0-5.75,1.54-10.22,4.63-13.41,3.09-3.19,7.37-4.78,12.85-4.78,1.98,0,3.6,.2,4.87,.61s2.43,.83,3.5,1.25c1.07,.43,2.32,.64,3.76,.64-.08,.66-.14,1.38-.18,2.16-.04,.78-.06,1.52-.06,2.21,0,2.02,.08,3.11,.23,3.26h-1.4c-.51-2.37-1.81-4.41-3.9-6.12-2.1-1.71-4.47-2.57-7.11-2.57-3.5,0-6.25,1.54-8.25,4.61-2,3.07-3,7.11-3,12.12s1.05,8.68,3.15,11.69c2.1,3.01,4.9,4.52,8.39,4.52,2.76,0,5.15-.84,7.17-2.51s3.3-3.75,3.85-6.24h1.63c-.16,1.13-.25,2.14-.29,3.03-.04,.89-.06,1.54-.06,1.92,0,1.13,.06,2.04,.17,2.74h-.35c-1.52,0-3.33,.44-5.45,1.31-2.12,.88-4.44,1.31-6.97,1.31-5.29,0-9.47-1.58-12.56-4.75-3.09-3.17-4.63-7.51-4.63-13.03Z"/><path class="cls-1" d="M570.56,126.97v40.05c0,.74,.25,1.11,.76,1.11l2.68-.12v1.52h-11.37v-1.52l2.16,.12c.51-.12,.76-.49,.76-1.11v-37.48c0-.82-.25-1.22-.76-1.22l-2.16,.12v-1.46h7.93Zm8.75,17.49c2.76,0,4.75,.65,5.97,1.95,1.22,1.3,1.84,3.41,1.84,6.33v14.28c0,.74,.25,1.11,.76,1.11l2.16-.12v1.52h-11.37v-1.52l2.68,.12c.51-.12,.76-.49,.76-1.11v-13.23c0-2.49-.2-4.35-.61-5.6-.41-1.24-1.51-1.87-3.29-1.87-2.41,0-4.31,1.1-5.71,3.29-1.4,2.2-2.04,5.08-1.92,8.66l-.23-7.4c.74-1.94,1.89-3.5,3.44-4.66,1.55-1.17,3.4-1.75,5.54-1.75Z"/><path class="cls-1" d="M601.11,167.02c0,.74,.25,1.11,.76,1.11l3.55-.12v1.52h-11.95v-1.52l1.87,.12c.5,0,.76-.37,.76-1.11v-19.41c0-.78-.25-1.17-.76-1.17l-2.1,.12v-1.52h8.22c-.23,.62-.35,1.52-.35,2.68v19.29Zm-.35-15.56c.97-2.57,2.05-4.37,3.24-5.42,1.18-1.05,2.5-1.57,3.93-1.57,1.59,0,2.79,.45,3.59,1.34,.8,.89,1.19,1.96,1.19,3.21,0,.93-.23,1.62-.7,2.07s-1.05,.67-1.75,.67c-.47,0-.94-.14-1.43-.41-.49-.27-.73-.74-.73-1.4,0-.54,.08-.99,.23-1.34,.15-.35,.23-.78,.23-1.28,0-.81-.45-1.22-1.34-1.22-1.4,0-2.57,.7-3.5,2.1-.93,1.4-1.62,3.03-2.07,4.9-.45,1.87-.63,3.5-.55,4.9l-.35-6.53Z"/><path class="cls-1" d="M623.49,145.04v21.98c0,.74,.25,1.11,.76,1.11l2.1-.12v1.52h-10.78v-1.52l2.16,.12c.51,0,.76-.37,.76-1.11v-19.41c0-.66-.23-1.05-.7-1.17l-2.16,.12v-1.52h7.87Zm-2.91-13c.93,0,1.7,.24,2.3,.73s.9,1.16,.9,2.01-.3,1.59-.9,2.07-1.37,.73-2.3,.73-1.64-.24-2.24-.73-.9-1.18-.9-2.07,.3-1.52,.9-2.01,1.35-.73,2.24-.73Z"/><path class="cls-1" d="M630.95,168.94l.29-7.69,1.52-.12c0,2.18,.84,3.96,2.53,5.33s3.66,2.07,5.92,2.07c3.26,0,4.9-1.48,4.9-4.43,0-1.09-.3-1.98-.9-2.68-.6-.7-1.66-1.26-3.18-1.69l-5.6-1.57c-1.52-.43-2.73-1.2-3.64-2.3-.91-1.11-1.37-2.5-1.37-4.17,0-2.1,.79-3.83,2.36-5.19s3.76-2.04,6.56-2.04c1.55,0,2.87,.21,3.93,.64,1.07,.43,2.09,.64,3.06,.64,.58,0,1.13-.15,1.63-.47l-.35,6.64h-1.28c0-1.48-.58-2.83-1.75-4.05-1.17-1.22-2.86-1.84-5.07-1.84-1.52,0-2.68,.4-3.5,1.2-.82,.8-1.22,1.78-1.22,2.94,0,1.91,1.2,3.19,3.61,3.85l5.6,1.57c2.06,.58,3.48,1.42,4.26,2.51,.78,1.09,1.17,2.45,1.17,4.08,0,2.6-.91,4.58-2.74,5.92-1.83,1.34-4.14,2.01-6.94,2.01-.86,0-1.72-.09-2.59-.26-.88-.17-2.19-.51-3.93-1.02-.58-.15-1.11-.23-1.57-.23-.78,0-1.34,.12-1.69,.35Z"/></g><g><path class="cls-1" d="M322.13,93.68c0,.93-4.66,3.73-10.84,3.73-8.98,0-19.12-5.25-26.35-7.69,0,0-1.98,5.25-8.98,5.25-2.91,0-4.66-1.75-4.66-4.2,0-3.26,3.03-5.24,6.06-5.24,.93,0,1.87,.12,1.87,.12l12.59-46.98c-.23-7.58,.7-9.79,3.85-9.79,2.68,0,5.59,1.05,5.01,3.26-.23,.93-14.69,54.67-14.69,54.67,8.28,1.87,18.77,7.81,25.06,7.81,2.21,0,4.2-1.4,4.55-1.75,.47-.47,1.63-.7,2.8-.7,1.87,0,3.73,.58,3.73,1.52Zm-46.86-1.63c1.52,0,3.03-3.61,3.03-3.61,0,0-.58-.12-1.28-.12-1.4,0-2.92,1.17-2.92,2.45,0,.7,.47,1.28,1.17,1.28Z"/><path class="cls-1" d="M372.49,76.31h.23c.35,0,.47,.23,.23,.58-4.43,6.06-16.55,18.19-21.68,18.19-2.68,0-5.25-1.05-4.66-3.61,.23-1.05,1.63-6.18,1.63-6.18,0,0-7.23,9.79-13.06,9.79-6.88,0-10.26-3.61-6.88-16.79,1.4-5.36,2.91-10.49,3.03-11.31,.58-2.1,1.86-3.26,5.48-3.26,3.85,0,4.08,1.63,3.96,2.68-.47,3.15-4.08,7.69-4.08,7.69,0,0-.58,2.22-1.28,4.9-1.98,7.23-1.17,13.06,.58,13.06,3.5,0,10.61-8.63,14.34-14.57,1.87-7.11,3.03-11.31,3.26-12.12,.23-.93,1.87-1.4,3.5-1.4,1.87,0,3.73,.58,3.61,1.52-.35,1.17-4.9,18.3-6.41,24.02-.23,.58,.23,.93,.58,.93,1.87,0,12.82-11.42,14.57-13.52,0,0,2.45-.47,3.03-.58Z"/><path class="cls-1" d="M402.68,76.9c-4.43,6.06-13.41,18.19-25.18,18.19-8.39,0-13.52-5.01-12.24-10.61,.12-.7,1.05-1.05,1.86-1.05,1.52,0,2.68,.7,2.45,1.75-1.05,3.85,3.15,7.11,6.99,7.11,2.68,0,6.88-1.75,6.88-5.36,0-4.43-6.53-8.28-8.63-12.94,0,0-.93,1.63-1.86,2.91,0,0-2.45,.47-3.03,.58-.58,.12-.82-.23-.47-.58,1.28-1.75,3.61-5.01,4.66-8.16,1.17-3.73,4.66-5.48,8.74-5.48,3.03,0,5.48,1.63,6.64,4.55,.35,.82,0,1.52-.7,1.86-.23,.12-.47,.12-.7,.12-.47,0-1.05-.23-1.17-.82-.47-1.4-1.63-2.8-3.15-2.8-1.4,0-2.68,2.1-2.68,4.31,0,5.71,9.44,10.84,9.44,16.09,3.03-2.68,5.48-5.71,8.63-9.68,0,0,2.45-.47,3.03-.58,.58-.12,.7,.23,.47,.58Z"/><path class="cls-1" d="M424.72,89.49c-.12,.47,.23,.81,.58,.81,1.87,0,12.94-11.31,14.57-13.41,0,0,2.45-.47,3.03-.58,.58-.12,.7,.23,.47,.58-4.43,6.06-16.67,18.19-21.68,18.19-3.26,0-5.25-1.52-4.66-3.73,.23-1.17,5.13-19.24,6.41-23.9,.12-.7-.23-1.05-.7-1.05-3.73,0-17.25,18.65-19.35,21.68,0,0-.93,3.38-1.28,4.78-.23,1.05-2.1,1.4-3.85,1.4s-3.61-.58-3.26-1.63c.47-1.87,18.53-69.25,19-70.99,1.98-7.46,5.71-8.74,9.44-8.74,3.15,0,5.36,2.68,5.36,8.97,0,16.2-13.52,40.33-21.33,50.94l-2.1,7.81s12.24-17.37,18.65-17.37,6.64,3.85,6.3,5.13c-.23,.82-4.2,15.86-5.6,21.1Zm1.4-67.73c0-3.61-.82-5.25-1.87-5.25s-2.21,1.75-3.03,5.01c-.93,3.5-11.54,42.9-11.54,42.9,0,0,16.44-25.64,16.44-42.67Z"/><path class="cls-1" d="M464.12,12.9c3.15,0,5.36,2.68,5.36,8.97,0,16.2-13.52,40.45-21.33,51.06l-2.1,7.81h3.26c5.83,0,12.01-1.05,14.81-3.85,0,0,2.45-.47,3.03-.58h.23c.35,0,.47,.23,.23,.58-2.68,3.96-7.7,6.65-18.54,6.65h-3.73l-.82,2.91s2.1,3.73,2.1,10.61c0,9.56-4.66,23.08-10.73,23.08-4.9,0-6.99-2.45-5.01-9.68,.93-3.5,7.11-26.35,7.11-26.35,0,0-1.05-.58-3.15-.58-.82,0-1.4-.58-1.4-1.4s.58-1.4,1.4-1.4h3.96s15.62-58.29,15.86-59.1c1.98-7.46,5.71-8.74,9.44-8.74Zm-26.11,102.82c1.4,0,5.83-10.03,5.83-18.65,0-3.38-.58-5.83-.58-5.83,0,0-5.13,18.77-5.24,19.58-.47,2.1-1.17,4.9,0,4.9Zm28.79-93.96c0-3.61-.82-5.25-1.87-5.25s-2.21,1.75-3.03,5.01c-.93,3.5-11.54,42.9-11.54,42.9,0,0,16.44-25.64,16.44-42.67Z"/><path class="cls-1" d="M507.84,76.31h.23c.35,0,.47,.23,.23,.58-4.43,6.06-16.55,18.19-21.68,18.19-2.68,0-5.25-1.05-4.66-3.61,.23-1.05,1.63-6.18,1.63-6.18,0,0-7.23,9.79-13.06,9.79-6.88,0-10.26-3.61-6.88-16.79,1.4-5.36,2.91-10.49,3.03-11.31,.58-2.1,1.86-3.26,5.48-3.26,3.85,0,4.08,1.63,3.96,2.68-.47,3.15-4.08,7.69-4.08,7.69,0,0-.58,2.22-1.28,4.9-1.98,7.23-1.17,13.06,.58,13.06,3.5,0,10.61-8.63,14.34-14.57,1.87-7.11,3.03-11.31,3.26-12.12,.23-.93,1.87-1.4,3.5-1.4,1.87,0,3.73,.58,3.61,1.52-.35,1.17-4.9,18.3-6.41,24.02-.23,.58,.23,.93,.58,.93,1.87,0,12.82-11.42,14.57-13.52,0,0,2.45-.47,3.03-.58Z"/><path class="cls-1" d="M534.42,21.87c0,16.2-13.64,40.45-21.45,51.06,0,0-1.63,5.83-2.1,7.93-1.75,7.81-.35,11.08,.58,11.08,4.55,0,14.46-10.96,17.49-15.04,0,0,2.45-.47,3.03-.58,.58-.12,.7,.23,.47,.58-4.43,6.06-14.46,18.19-22.15,18.19s-8.98-5.01-5.95-16.44c3.26-12.36,14.92-55.72,15.27-57,1.98-7.46,5.71-8.74,9.44-8.74,3.15,0,5.36,2.68,5.36,8.97Zm-2.68-.12c0-3.61-.82-5.25-1.87-5.25s-2.21,1.75-3.03,5.01c-.93,3.5-11.54,42.9-11.54,42.9,0,0,16.44-25.64,16.44-42.67Z"/><path class="cls-1" d="M604.83,97.41c-3.15,0-5.71-1.28-5.48-4.31,.12-.7,2.45-25.06,2.45-25.06-1.05-.23-1.87-.58-1.87-.58,0,0-19.47,2.33-30.31,16.79-.35,.47-6.06,8.16-6.64,8.98-.35,.47-1.17,1.05-3.38,1.05s-4.2-.93-3.61-1.75c.35-.47,44.76-60.5,45.11-60.97,1.28-1.75,3.15-2.68,5.71-2.68s5.83,1.28,5.59,3.96c0,.7-3.03,31.13-3.03,31.13,1.98,0,4.78,.82,4.78,2.8,0,1.87-2.8,2.68-5.36,2.68,0,0-2.21,23.31-2.33,23.78-.12,.81,0,1.4,.7,1.63s1.28,.47,1.28,1.05c0,.7-1.17,1.52-3.61,1.52Zm0-60.85l-24.71,33.46c11.07-5.13,22.03-5.71,22.03-5.71l2.68-27.75Z"/><path class="cls-1" d="M615.79,83.07c0-8.98,8.51-19.82,19.47-19.82,3.61,0,6.41,2.33,6.41,4.66,0,5.83-10.73,8.98-17.72,9.91,0,0-1.05,2.68-1.05,5.25,0,5.01,3.26,9.09,6.29,9.09,9.21,0,16.9-11.31,20.05-15.27,0,0,2.45-.47,3.03-.58,.58-.12,.7,.23,.47,.58-4.43,6.06-13.06,18.07-23.55,18.07-6.41,0-13.41-3.26-13.41-11.89Zm19.59-17.02c-2.68,0-7.11,3.38-10.03,8.63,5.95-1.28,11.77-3.03,11.77-6.99,0-1.05-.7-1.63-1.75-1.63Z"/><path class="cls-1" d="M682.47,76.9c-4.43,6.06-13.41,18.19-25.18,18.19-8.39,0-13.52-5.01-12.24-10.61,.12-.7,1.05-1.05,1.86-1.05,1.52,0,2.68,.7,2.45,1.75-1.05,3.85,3.15,7.11,6.99,7.11,2.68,0,6.88-1.75,6.88-5.36,0-4.43-6.53-8.28-8.63-12.94,0,0-.93,1.63-1.86,2.91,0,0-2.45,.47-3.03,.58-.58,.12-.82-.23-.47-.58,1.28-1.75,3.61-5.01,4.66-8.16,1.17-3.73,4.66-5.48,8.74-5.48,3.03,0,5.48,1.63,6.64,4.55,.35,.82,0,1.52-.7,1.86-.23,.12-.47,.12-.7,.12-.47,0-1.05-.23-1.17-.82-.47-1.4-1.63-2.8-3.15-2.8-1.4,0-2.68,2.1-2.68,4.31,0,5.71,9.44,10.84,9.44,16.09,3.03-2.68,5.48-5.71,8.63-9.68,0,0,2.45-.47,3.03-.58,.58-.12,.7,.23,.47,.58Z"/><path class="cls-1" d="M700.77,66.87h-9.44c-1.52,2.21-2.91,4.31-4.08,5.95,0,0-1.63,5.95-2.1,8.04-1.75,7.81-.35,11.08,.58,11.08,5.59,0,16.2-10.96,19.24-15.04,0,0,2.45-.47,3.03-.58,.58-.12,.7,.23,.47,.58-4.43,6.06-15.74,18.19-23.9,18.19s-8.98-5.95-6.06-16.44c.58-2.45,3.15-11.77,3.15-11.77h-1.63c-1.98,0-3.73-1.75-3.73-2.57,0-.23,.12-.35,.47-.35h5.71s11.07-41.38,11.31-42.32c1.98-7.46,5.71-8.74,9.44-8.74,3.15,0,5.36,2.68,5.36,8.97,0,12.59-8.16,30.08-15.5,42.08h4.43c1.98,0,3.73,1.75,3.73,2.57,0,.23-.23,.35-.47,.35Zm.23-45.35c-.93,3.26-10.02,37.42-11.42,42.43h.23c2.57-3.96,16.09-26.69,16.09-42.2,0-3.61-.82-5.25-1.87-5.25s-2.21,1.75-3.03,5.01Z"/><path class="cls-1" d="M730.5,89.49c-.12,.47,.23,.81,.58,.81,1.87,0,12.94-11.31,14.57-13.41,0,0,2.45-.47,3.03-.58,.58-.12,.7,.23,.47,.58-4.43,6.06-16.67,18.19-21.68,18.19-3.26,0-5.25-1.52-4.66-3.73,.23-1.17,5.13-19.24,6.41-23.9,.12-.7-.23-1.05-.7-1.05-3.73,0-17.25,18.65-19.35,21.68,0,0-.93,3.38-1.28,4.78-.23,1.05-2.1,1.4-3.85,1.4s-3.61-.58-3.26-1.63c.47-1.87,18.53-69.25,19-70.99,1.98-7.46,5.71-8.74,9.44-8.74,3.15,0,5.36,2.68,5.36,8.97,0,16.2-13.52,40.33-21.33,50.94l-2.1,7.81s12.24-17.37,18.65-17.37,6.64,3.85,6.3,5.13c-.23,.82-4.2,15.86-5.6,21.1Zm1.4-67.73c0-3.61-.82-5.25-1.87-5.25s-2.21,1.75-3.03,5.01c-.93,3.5-11.54,42.9-11.54,42.9,0,0,16.44-25.64,16.44-42.67Z"/><path class="cls-1" d="M742.63,83.07c0-8.98,8.51-19.82,19.47-19.82,3.61,0,6.41,2.33,6.41,4.66,0,5.83-10.73,8.98-17.72,9.91,0,0-1.05,2.68-1.05,5.25,0,5.01,3.26,9.09,6.29,9.09,9.21,0,16.9-11.31,20.05-15.27,0,0,2.45-.47,3.03-.58,.58-.12,.7,.23,.47,.58-4.43,6.06-13.06,18.07-23.55,18.07-6.41,0-13.41-3.26-13.41-11.89Zm19.58-17.02c-2.68,0-7.11,3.38-10.02,8.63,5.95-1.28,11.77-3.03,11.77-6.99,0-1.05-.7-1.63-1.75-1.63Z"/><path class="cls-1" d="M797.88,66.87h-9.44c-1.52,2.21-2.91,4.31-4.08,5.95,0,0-1.63,5.95-2.1,8.04-1.75,7.81-.35,11.08,.58,11.08,5.59,0,16.2-10.96,19.24-15.04,0,0,2.45-.47,3.03-.58,.58-.12,.7,.23,.47,.58-4.43,6.06-15.74,18.19-23.9,18.19s-8.98-5.95-6.06-16.44c.58-2.45,3.15-11.77,3.15-11.77h-1.63c-1.98,0-3.73-1.75-3.73-2.57,0-.23,.12-.35,.47-.35h5.71s11.07-41.38,11.31-42.32c1.98-7.46,5.71-8.74,9.44-8.74,3.15,0,5.36,2.68,5.36,8.97,0,12.59-8.16,30.08-15.5,42.08h4.43c1.98,0,3.73,1.75,3.73,2.57,0,.23-.23,.35-.47,.35Zm.23-45.35c-.93,3.26-10.02,37.42-11.42,42.43h.23c2.57-3.96,16.09-26.69,16.09-42.2,0-3.61-.82-5.25-1.87-5.25s-2.21,1.75-3.03,5.01Z"/><path class="cls-1" d="M798.12,91.35c.35-1.28,6.06-22.62,6.53-24.36,.58-2.1,1.86-3.26,5.48-3.26,3.85,0,4.08,1.63,3.96,2.68-.47,3.15-4.08,7.69-4.08,7.69,0,0-4.08,15.39-4.31,16.2-.23,.47,.12,.93,.58,.93,.12,0,.23-.12,.35-.12,5.36-2.68,12.59-10.26,15.74-14.22,0,0,2.45-.47,3.03-.58,.58-.12,.7,.23,.47,.58-4.43,6.06-16.09,18.19-23.08,18.19-3.26,0-5.25-1.52-4.66-3.73Zm18.65-38.12c0,2.1-1.75,4.08-4.08,4.08-1.86,0-3.5-1.4-3.5-3.61,0-2.1,1.87-3.97,4.08-3.97,1.98,0,3.5,1.63,3.5,3.5Z"/><path class="cls-1" d="M832.63,94.97c-6.3,0-13.29-3.38-13.29-12.01s8.39-19.82,19.59-19.82c4.55,0,7.81,2.68,8.86,4.9,.35,.7-.12,1.63-2.1,1.63-.93,0-1.75-.23-2.1-.81-1.05-1.75-2.8-2.92-4.66-2.92-4.55,0-12.47,8.98-12.47,17.14,0,4.9,3.26,9.09,6.18,9.09,8.74,0,16.79-11.31,19.93-15.27,0,0,2.45-.47,3.03-.58,.58-.12,.7,.23,.47,.58-4.43,6.06-13.29,18.07-23.43,18.07Z"/><path class="cls-1" d="M885.78,76.9c-4.43,6.06-13.41,18.19-25.18,18.19-8.39,0-13.52-5.01-12.24-10.61,.12-.7,1.05-1.05,1.86-1.05,1.52,0,2.68,.7,2.45,1.75-1.05,3.85,3.15,7.11,6.99,7.11,2.68,0,6.88-1.75,6.88-5.36,0-4.43-6.53-8.28-8.63-12.94,0,0-.93,1.63-1.87,2.91,0,0-2.45,.47-3.03,.58-.58,.12-.82-.23-.47-.58,1.28-1.75,3.61-5.01,4.66-8.16,1.17-3.73,4.66-5.48,8.74-5.48,3.03,0,5.48,1.63,6.64,4.55,.35,.82,0,1.52-.7,1.86-.23,.12-.47,.12-.7,.12-.47,0-1.05-.23-1.17-.82-.47-1.4-1.63-2.8-3.15-2.8-1.4,0-2.68,2.1-2.68,4.31,0,5.71,9.44,10.84,9.44,16.09,3.03-2.68,5.48-5.71,8.63-9.68,0,0,2.45-.47,3.03-.58,.58-.12,.7,.23,.47,.58Z"/></g></g></svg>